<svg width="62" height="24" viewBox="0 0 62 24" fill="none" xmlns="http://www.w3.org/2000/svg">
<rect width="62" height="24" fill="#2F2F2F"/>
<g id="Homepage" clip-path="url(#clip0_2_4)">
<rect width="1440" height="9300" transform="translate(-1339 -9237)" fill="white"/>
<g id="Group 6062">
<g id="Frame 2087325555">
<g id="Frame 2087325526">
<g id="&#208;&#161;&#208;&#187;&#208;&#190;&#208;&#185; 1">
<path id="Vector" d="M7.85576 23.996C7.9344 23.6869 8.02966 23.3824 8.14112 23.0837C8.33188 22.4359 8.35553 22.3398 8.49821 21.692C8.73469 20.5643 8.71262 20.6589 8.73469 19.6765C8.73469 18.8818 8.73469 18.8127 8.6874 18.5726C8.56836 17.8526 8.25857 17.1572 7.78324 16.6533C7.23144 16.0533 6.66388 15.7894 5.80781 15.7409C5.37898 15.7171 4.80748 15.6209 4.52212 15.5025C4.27917 15.4203 4.04743 15.3076 3.83238 15.1671C3.40355 14.9032 2.90378 14.3032 2.80761 14.0147L2.78396 13.967L2.83126 13.9909L3.14342 14.3056C3.30975 14.4494 3.47686 14.5933 3.54781 14.641C3.90188 14.8303 4.2775 14.9755 4.66638 15.0733C4.81495 15.1063 4.96673 15.1223 5.11885 15.121C5.39824 15.1247 5.67731 15.1007 5.95206 15.0495C6.26107 15.0256 6.54721 14.9772 6.57086 14.9772C6.73719 14.9772 7.45137 15.4334 7.85576 15.7719C8.59099 16.4052 9.07999 17.2806 9.23604 18.2428C9.28957 18.7128 9.30565 19.1864 9.28412 19.6591C9.21239 20.4268 8.95068 21.4345 8.59359 22.3461C8.28458 23.156 7.88256 24.0676 7.85576 23.996ZM11.7593 23.7314C11.4976 23.1321 11.0924 22.1482 10.971 21.7644C10.6384 20.7566 10.4981 20.0604 10.4981 19.2927C10.4736 18.5965 10.5217 18.1649 10.688 17.6372C10.9346 16.8653 11.3976 16.1818 12.021 15.6694C12.3781 15.3809 13.0679 14.9732 13.2105 14.9732C13.235 14.9732 13.5203 15.0217 13.8057 15.0455C14.0884 15.0969 14.3753 15.1209 14.6626 15.117C15.0843 15.0992 15.4977 14.9931 15.8765 14.8055C16.21 14.6616 16.3495 14.5671 16.6861 14.2293C16.8288 14.0854 16.9714 13.9654 16.9714 13.9654C16.9951 13.9893 16.8997 14.1578 16.8288 14.2778C16.6588 14.5054 16.4745 14.7217 16.277 14.9255C15.9379 15.2163 15.54 15.4292 15.1111 15.5494C14.7382 15.6542 14.3553 15.7184 13.9689 15.7409C13.5564 15.7513 13.1507 15.8496 12.7786 16.0294C11.9217 16.461 11.2312 17.5172 11.0648 18.645C11.0412 18.8127 11.0412 19.0288 11.0412 19.5804C11.0412 20.5166 11.0412 20.5643 11.2777 21.7644C11.3614 22.2209 11.4808 22.67 11.6348 23.1075C11.8247 23.6837 11.9201 23.9476 11.8965 23.996C11.8965 24.0199 11.8247 23.8999 11.7538 23.7314H11.7593ZM7.49867 23.4675C7.51038 23.3948 7.52644 23.3229 7.54675 23.2522C7.59405 23.0837 7.59405 23.0137 7.59405 22.3644C7.5704 21.6682 7.5704 21.6444 7.52232 21.4282C7.40329 20.9243 7.18966 20.492 6.78449 19.8442C6.59451 19.5565 6.59451 19.5565 6.64181 19.5804C6.80836 19.7333 6.95989 19.902 7.09428 20.0843C7.29767 20.3534 7.47307 20.6429 7.6177 20.9482C7.83188 21.3477 7.95394 21.7908 7.97479 22.2444V22.5083L7.95114 22.4121C7.92749 22.3398 7.90384 22.3159 7.87941 22.3159C7.85497 22.3159 7.85576 22.3398 7.83211 22.4359C7.78481 22.8436 7.6177 23.3722 7.52232 23.4691C7.47502 23.4922 7.47502 23.4922 7.49867 23.4675ZM12.2354 23.4675C12.1401 23.3475 12.021 22.9637 11.9493 22.5798C11.902 22.2682 11.8784 22.2444 11.8303 22.4121L11.783 22.5321L11.8066 22.2682C11.8034 21.9896 11.8518 21.7128 11.9493 21.452C12.0683 21.0205 12.4491 20.3728 12.8062 19.9166C12.9252 19.7727 13.1396 19.5565 13.1396 19.5804C13.1632 19.5804 13.0915 19.6765 13.0206 19.7966C12.6162 20.4204 12.4018 20.8766 12.2827 21.3559C12.1874 21.6682 12.1874 21.8121 12.1874 22.4598C12.1874 23.0121 12.1874 23.0837 12.2354 23.276C12.2591 23.396 12.2827 23.4922 12.2827 23.4922C12.2703 23.4787 12.2536 23.47 12.2354 23.4675ZM8.07017 20.8766C8.07905 20.4496 8.03911 20.0229 7.95114 19.605C7.83211 19.1496 7.68943 18.8897 7.45137 18.6458C7.28426 18.4773 7.21489 18.4296 6.76084 18.1896C5.47594 17.4934 4.64273 16.8695 4.23834 16.3179C4.07123 16.1017 3.97663 15.8617 3.97663 15.7417C4.00028 15.694 4.00028 15.7179 4.14296 15.9102C4.33372 16.1486 4.35737 16.1979 4.66638 16.3871C4.94133 16.5994 5.23624 16.7842 5.54689 16.9386C6.02831 17.1429 6.52102 17.3191 7.02255 17.4663C7.6177 17.6587 7.81083 17.7302 7.92749 17.7787C8.14112 17.8987 8.40046 18.3302 8.52264 18.7626C8.56098 18.9682 8.57685 19.1774 8.56994 19.3865C8.56994 19.7942 8.56994 19.8419 8.54629 19.8419C8.52264 19.8419 8.52264 19.8419 8.40361 19.365L8.33188 19.0535L8.30823 19.725C8.30823 20.4212 8.28458 20.6851 8.21285 21.0451C8.18897 21.1358 8.15705 21.2241 8.11747 21.309L8.09382 21.4051L8.07017 20.8766ZM11.6663 21.332C11.619 21.2605 11.5709 21.0205 11.5236 20.8552C11.4755 20.5198 11.4755 20.3036 11.4519 19.7036V19.0558L11.351 19.392C11.2564 19.8474 11.2564 19.8474 11.2083 19.8474C11.1847 19.8474 11.1847 19.7997 11.1847 19.4159C11.2083 19.0082 11.2083 18.939 11.2564 18.7435C11.3754 18.312 11.6371 17.9042 11.8752 17.7604C11.9942 17.7119 12.2796 17.6157 12.7794 17.4719C13.2719 17.321 13.7566 17.1449 14.2314 16.9442C14.5182 16.7925 14.7961 16.6242 15.0638 16.4403C15.3499 16.2241 15.469 16.128 15.588 15.9635C15.6589 15.8911 15.707 15.7958 15.7543 15.7473L15.8016 15.6996L15.778 15.7958C15.7543 16.0342 15.588 16.2996 15.305 16.6112C14.832 17.1151 14.1155 17.5951 13.0442 18.1713C12.5713 18.4351 12.4727 18.5067 12.2827 18.699C12.1006 18.8944 11.97 19.1326 11.9028 19.392C11.7601 19.8236 11.712 20.1868 11.712 20.9275C11.712 21.1914 11.6884 21.4043 11.6884 21.4043C11.6859 21.379 11.6784 21.3544 11.6663 21.332ZM7.81083 20.5373C7.6959 20.4023 7.59153 20.2586 7.49867 20.1073C7.21331 19.6996 6.92795 19.3396 6.76084 19.2196C6.64635 19.1404 6.52709 19.0684 6.40375 19.0042C6.28472 18.9319 6.07109 18.788 5.97571 18.7157C5.73923 18.548 5.16615 17.9718 4.99982 17.7564C4.90444 17.6118 4.76334 17.3479 4.76334 17.3002C4.76334 17.2764 4.83507 17.3479 5.19216 17.6603C5.38214 17.8041 5.59655 17.9718 5.66513 18.0441C6.02222 18.308 6.35566 18.4757 6.59372 18.4995L6.6891 18.5242L6.83178 18.6918C6.92724 18.8334 7.0304 18.9695 7.14079 19.0996C7.42693 19.5081 7.665 19.8943 7.75959 20.1796C7.78727 20.2535 7.81912 20.3256 7.85497 20.3958C7.8743 20.4411 7.88241 20.4905 7.87862 20.5397V20.6358L7.81083 20.5373ZM11.8807 20.5373C11.8891 20.4872 11.9051 20.4387 11.928 20.3934C11.9642 20.3234 11.996 20.2512 12.0234 20.1772C12.1424 19.8411 12.3324 19.5057 12.7612 18.9295C13.0702 18.5218 13.0939 18.5218 13.1656 18.5218C13.2412 18.5127 13.3142 18.4881 13.38 18.4494C13.689 18.3533 13.9752 18.1617 14.5222 17.7056C14.6886 17.5617 14.8793 17.394 14.9266 17.3455C15.022 17.2978 15.022 17.2978 14.9984 17.3455C14.8793 17.754 13.9988 18.6418 13.38 19.0018C13.2633 19.0552 13.1517 19.1193 13.0466 19.1933C12.8803 19.3133 12.6185 19.6257 12.2851 20.1049C11.8784 20.6843 11.8784 20.6636 11.8784 20.5404L11.8807 20.5373ZM11.0475 15.8578C11.0474 15.7932 11.0554 15.7288 11.0712 15.6662C11.1192 15.5224 11.1192 15.4024 11.1429 15.0423C11.1429 14.5146 11.1192 14.2476 11.0475 13.9146C10.9048 13.2668 10.7141 12.8583 9.95259 11.6829C9.61914 11.179 9.42917 10.819 9.45282 10.7952C9.54214 10.7692 9.62959 10.7371 9.71452 10.699C9.88085 10.6267 9.95101 10.579 9.95101 10.5551C9.90684 10.5112 9.85912 10.4711 9.80833 10.4351C9.76207 10.4024 9.72179 10.3618 9.6893 10.3151C9.76547 10.1947 9.85312 10.0821 9.95101 9.97895C10.0937 9.81125 10.2127 9.6674 10.1875 9.6674C10.1875 9.64277 9.90213 9.78741 9.73502 9.85894C9.28333 10.1466 8.87816 10.5067 8.87816 10.6752C8.87816 10.699 8.94989 10.8905 9.02163 11.1067C9.09336 11.3229 9.18795 11.5629 9.2116 11.663C9.26768 11.8153 9.28396 11.9795 9.2589 12.1399C9.2589 12.4284 9.2589 12.4522 9.2116 12.5722C9.16648 12.6649 9.1016 12.7463 9.02163 12.8107C8.99719 12.8107 8.99719 12.8107 9.04527 12.7145C9.18795 12.2376 9.09257 11.6591 8.78356 11.3229C8.64912 11.1878 8.47262 11.1036 8.2838 11.0845C8.14033 11.0606 8.11668 11.0606 7.64056 11.1568L7.59326 11.1806L7.64056 11.1083C7.69001 11.0663 7.74664 11.0337 7.80767 11.0121C7.93541 10.956 8.03735 10.8532 8.09303 10.7244C8.14033 10.6283 8.30744 10.486 8.5455 10.2929C9.33379 9.66899 9.99673 9.28513 10.4728 9.23665C10.8299 9.18896 11.1634 9.30897 11.3061 9.59667C11.3778 9.71668 11.3778 9.76436 11.3061 9.69283C11.1397 9.54898 10.8536 9.59667 10.4492 9.86053C10.3078 9.9547 10.1797 10.0678 10.0685 10.1967C10.0448 10.2444 10.0448 10.2682 10.0921 10.3167C10.1402 10.4129 10.3286 10.5806 10.4973 10.6767C10.5983 10.7343 10.7144 10.7592 10.8299 10.7483C10.9197 10.7539 11.0095 10.7375 11.0917 10.7006C11.1161 10.7006 11.1634 10.6767 11.1634 10.7006C11.187 10.7006 11.187 10.7483 11.187 10.8206C11.187 10.9168 11.187 10.9406 11.1397 10.9644C11.0444 11.0368 10.7109 11.0606 10.3515 11.0121L10.0661 10.9883V11.0606C10.0926 11.154 10.1327 11.2429 10.1851 11.3245C10.3655 11.6719 10.5894 11.9946 10.8512 12.2845C11.0183 12.4522 11.042 12.4999 11.1374 12.7614C11.2888 13.2504 11.3685 13.7591 11.3739 14.2714C11.3739 14.8468 11.2785 15.3745 11.1594 15.663C11.0924 15.7894 11.0451 15.8848 11.0451 15.8609L11.0475 15.8578ZM5.69035 14.2261C4.71446 14.13 3.52416 13.7222 2.57192 13.1707C2.07626 12.8503 1.61384 12.4805 1.19164 12.0668C1.00166 11.8506 0.620923 11.3467 0.358425 10.9629C0.16845 10.6752 -0.0223142 10.3151 0.00212247 10.2913C0.00212247 10.2666 0.121153 10.3628 0.263832 10.5067C0.691397 10.9142 1.15322 11.2835 1.64411 11.6106C1.92947 11.7791 2.47732 12.0668 2.57192 12.0874C2.64365 12.1113 2.64365 12.1113 2.62 12.0636C2.59635 12.0397 2.40559 11.8252 2.19118 11.5867C1.57632 10.9676 1.14434 10.3898 0.810898 9.71827C0.358425 8.73436 0.0730677 7.84662 0.0257709 7.0304C0.00212247 6.79198 0.00212247 6.69502 0.0494193 6.23565C0.0730677 5.94795 0.0967161 5.68409 0.0967161 5.65945C0.121153 5.61177 0.121153 5.63561 0.239395 5.89788C0.322088 6.15062 0.417595 6.39891 0.525541 6.64177C0.715516 7.17028 0.739953 7.26565 0.90628 7.57799C1.26337 8.22572 1.66776 8.82576 1.71506 8.77728C1.71506 8.77728 1.64411 8.51342 1.54873 8.22572C1.23972 7.29029 1.19164 6.95411 1.16799 6.04252C1.16799 5.37016 1.19164 5.05862 1.26337 4.62627C1.36213 4.11856 1.50537 3.62068 1.69141 3.13849C1.8128 2.80787 2.07215 2.27936 2.14388 2.20783L2.19118 2.15935L2.16753 2.20783C2.16753 2.23167 2.12023 2.42321 2.07215 2.61554C1.88217 3.41029 1.85852 3.81562 1.85852 4.75105C1.86284 5.25879 1.91857 5.76476 2.02485 6.26108C2.12023 6.71727 2.23926 7.10114 2.31021 7.10114V7.02882C2.31021 6.71727 2.54669 5.94954 2.83363 5.15717C3.14342 4.41328 3.66684 3.47785 4.09487 2.92549C4.23755 2.73396 4.99903 1.96622 5.26074 1.72621C5.5461 1.46235 5.99857 1.17385 6.37931 0.931453C6.68989 0.767734 7.45137 0.383867 7.78481 0.238427C8.07017 0.142261 8.30823 0.0460958 8.52264 0H8.59359L8.54629 0.0476853C8.52264 0.0723227 8.37918 0.167693 8.2365 0.263859C8.09382 0.360024 7.92749 0.476853 7.85576 0.527717C6.9516 1.32009 6.47548 1.82794 5.99936 2.49553C5.27519 3.52029 4.77983 4.69106 4.54735 5.92728C4.47859 6.332 4.44693 6.74223 4.45275 7.1528C4.44668 7.70942 4.50247 8.26497 4.61908 8.80907C4.75114 9.4626 4.93407 10.1046 5.16615 10.7292C5.30961 11.0654 5.63911 11.7624 5.90398 12.2647C6.14046 12.697 6.28472 12.9609 6.28472 12.9847C6.26107 12.9847 5.97571 12.6732 5.83303 12.4808C5.47594 12.004 4.85714 11.0415 4.59543 10.513C4.154 9.64885 3.86411 8.71422 3.73857 7.75045C3.69049 7.29506 3.66684 6.31115 3.73857 5.90265C3.83244 5.19601 4.0337 4.50816 4.3353 3.86331C4.42989 3.67097 4.50163 3.52712 4.47798 3.52712C4.45433 3.50328 4.26357 3.7433 4.12089 3.95947C3.59309 4.72609 3.22097 5.59043 3.02597 6.50269C2.85964 7.12657 2.8352 7.39043 2.81155 8.33062V9.09836L2.74061 9.02604C2.62158 8.93066 2.43081 8.64217 2.2164 8.16214C1.88375 7.51441 1.76472 7.32287 1.78837 7.49057C1.83566 7.75443 1.93104 8.0469 2.2164 8.69065C2.4789 9.31453 2.66887 9.6984 2.90694 9.96226C2.97867 10.0346 3.04961 10.13 3.07326 10.1538L3.12135 10.2261L2.95423 10.2023C2.66887 10.1784 2.50255 10.13 2.12181 9.93841C1.99053 9.86651 1.85524 9.80229 1.71663 9.74608L1.64569 9.72224L1.74107 9.88993C2.02643 10.2984 2.62158 10.9938 3.16864 11.6177C3.69206 12.1741 3.88283 12.3616 4.14454 12.554C4.66795 12.9378 4.73969 12.9855 4.73969 13.0093C4.71604 13.0093 4.3353 12.9378 4.0728 12.8655C3.54702 12.7415 3.40513 12.7161 3.11977 12.7161L2.83363 12.6922L2.88171 12.7399C3.00074 12.9545 3.73857 13.3177 4.83349 13.7493C5.28518 13.9178 5.90398 14.1816 6.02301 14.2261L6.09474 14.25H5.97571C5.88003 14.2521 5.78439 14.2441 5.69035 14.2261ZM13.6867 14.25C13.7111 14.25 14.3055 14.0115 14.877 13.7731C15.9719 13.3408 16.69 13.0046 16.8524 12.7892L16.9241 12.7169H16.7334C16.4969 12.693 16.2604 12.7407 15.7575 12.8607C15.521 12.9092 15.305 12.9569 15.2341 12.9807C15.186 12.9807 15.115 12.9807 15.0914 13.0046C15.0669 13.0046 15.0669 13.0046 15.0669 12.9807C15.0669 12.9807 15.2577 12.8369 15.4721 12.6692C15.9002 12.3569 16.0428 12.1923 16.6143 11.5653C16.9521 11.224 17.27 10.8634 17.5666 10.4852C17.8283 10.1737 18.1373 9.74131 18.1136 9.74131C18.09 9.71747 17.8772 9.78979 17.6407 9.93365C17.498 10.0052 17.3317 10.0775 17.2363 10.1252C17.0936 10.1737 16.7365 10.2213 16.6892 10.1975C16.6648 10.1975 16.7365 10.1013 16.8556 9.98133C17.1173 9.66979 17.308 9.3336 17.5697 8.70972C17.6643 8.44586 17.7834 8.13352 17.8314 7.98967C17.9268 7.72582 17.9978 7.46196 17.9741 7.43811C17.9505 7.41427 17.9024 7.50964 17.6643 8.01352C17.3317 8.66204 17.2126 8.85357 17.0936 8.99742L16.9746 9.09359L16.9509 8.32586C16.9509 7.46196 16.9273 7.24578 16.8319 6.74191C16.7602 6.45421 16.6892 6.21419 16.5458 5.73416C16.3613 5.21809 16.1304 4.72009 15.856 4.24638C15.5943 3.83867 15.3326 3.47864 15.3042 3.52633C15.3358 3.63341 15.3756 3.73784 15.4232 3.83867C15.6408 4.29916 15.8083 4.78199 15.923 5.27876C16.042 5.78264 16.0665 6.02266 16.0665 6.76655C16.0757 7.07884 16.0676 7.3914 16.042 7.70277C15.9164 8.62604 15.6506 9.52431 15.2538 10.366C14.8386 11.1424 14.3695 11.8881 13.8498 12.5977C13.6827 12.79 13.4928 13.0054 13.4928 12.9815C13.4928 12.9577 13.5881 12.79 13.8735 12.2138C14.4206 11.2537 14.635 10.7499 14.8983 9.86212C15.1175 9.13595 15.254 8.38697 15.305 7.62965C15.3819 6.46456 15.1865 5.29754 14.7343 4.22253C14.2345 2.97477 13.4486 1.8947 12.3064 0.884563C11.8539 0.476853 11.8334 0.45301 11.5449 0.26068C11.1878 0.0222531 11.1642 -0.00317902 11.3305 0.0222531C11.902 0.142261 13.0915 0.718459 13.8057 1.19849C14.1864 1.46235 14.4245 1.65389 14.9487 2.15776C15.4217 2.61395 15.5675 2.7578 15.7575 3.02166C16.1752 3.61667 16.534 4.25153 16.8288 4.91715C17.1614 5.73336 17.4476 6.66561 17.4476 7.02882C17.4476 7.31731 17.6375 6.86112 17.7566 6.26108C17.8756 5.61336 17.8992 5.46633 17.8992 4.70177C17.9237 3.74171 17.8756 3.43016 17.6628 2.51778C17.6472 2.39631 17.6235 2.27603 17.5918 2.15776C17.6155 2.15776 17.7108 2.30161 17.8062 2.51778C18.2085 3.33211 18.4749 4.20776 18.5945 5.10948C18.6181 5.44566 18.6181 6.42957 18.5709 6.74111C18.514 7.25738 18.3941 7.76458 18.2138 8.25115C18.1184 8.56349 18.0474 8.77887 18.0711 8.77887C18.1665 8.77887 18.8594 7.65111 19.0706 7.14723C19.1179 7.05186 19.2369 6.71568 19.356 6.3795C19.475 6.06796 19.5925 5.75562 19.6177 5.70793C19.6658 5.63561 19.6658 5.61177 19.6894 5.65945C19.6894 5.70793 19.7131 5.94795 19.7367 6.21578C19.7848 6.79198 19.7848 7.05584 19.7131 7.48739C19.5467 8.44745 19.0706 9.64674 18.5709 10.4153C18.2878 10.8267 17.9691 11.2121 17.6186 11.5669C17.4042 11.8053 17.1906 12.0223 17.1661 12.0437L17.1425 12.1152L17.1906 12.0914C17.3569 12.0437 18.0474 11.6837 18.4518 11.3952C18.7135 11.2037 19.166 10.8198 19.4987 10.5321C19.6413 10.3875 19.7604 10.2674 19.7848 10.2937C19.6791 10.5308 19.5499 10.7566 19.3993 10.9676C19.159 11.3628 18.8798 11.7326 18.5661 12.0715C18.316 12.3406 18.0377 12.5815 17.7361 12.79C16.6892 13.6054 15.1655 14.1816 13.8806 14.2531L13.6867 14.25Z" fill="#58585A"/>
<path id="Vector_2" d="M22.915 13.0481H24.535V8.64439H29.0195V7.26629H24.535V3.93388H29.4318V2.52637H22.915V13.0481Z" fill="#58585A"/>
<path id="Vector_3" d="M37.4665 11.6335H32.4617V8.36702H37.1993V7.01117H32.4617V3.93388H37.4665V2.52637H30.8418V13.0481H37.4665V11.6335Z" fill="#58585A"/>
<path id="Vector_4" d="M40.7064 5.29768H40.7719L46.1818 13.0481H47.6425V2.52637H46.066V10.2848H46.0076L40.5985 2.52637H39.1299V13.0481H40.7064V5.29768Z" fill="#58585A"/>
<path id="Vector_5" d="M51.1863 2.52637H49.5664V13.0481H51.1863V2.52637Z" fill="#58585A"/>
<path id="Vector_6" d="M52.4668 13.0481H54.2601L56.893 9.0378H56.9434L59.5392 13.0481H61.4343L57.9627 7.82738V7.78367L61.4997 2.52637H59.6701L57.0664 6.59551H57.0081L54.4336 2.52637H52.5023L55.9305 7.72566V7.77652L52.4668 13.0481Z" fill="#58585A"/>
<path id="Vector_7" d="M23.4779 15.5342H22.9316V21.3796H23.4779V15.5342Z" fill="#58585A"/>
<path id="Vector_8" d="M28.7793 20.4156H28.7518L25.3519 15.5342H24.8096V21.3796H25.3519V16.4942H25.3803L28.792 21.3796H29.3217V15.5342H28.7793V20.4156Z" fill="#58585A"/>
<path id="Vector_9" d="M32.5617 15.5342H30.6533V21.3788H32.5617C33.432 21.3788 34.1076 21.1229 34.5884 20.6111C35.0693 20.0993 35.3097 19.3803 35.3097 18.4541C35.3097 17.5306 35.0687 16.8129 34.5868 16.3011C34.1049 15.7893 33.4299 15.5337 32.5617 15.5342ZM34.1746 20.2495C33.7904 20.6686 33.242 20.8778 32.5294 20.8773H31.2035V16.0365H32.5294C33.242 16.0365 33.7904 16.2458 34.1746 16.6643C34.5587 17.0829 34.7511 17.6811 34.7516 18.4589C34.7516 19.2346 34.5593 19.8314 34.1746 20.2495Z" fill="#58585A"/>
<path id="Vector_10" d="M40.3427 19.3061C40.3427 19.8031 40.1914 20.2026 39.8887 20.5046C39.586 20.8066 39.1721 20.9579 38.6471 20.9584C38.1216 20.9584 37.7078 20.8071 37.4056 20.5046C37.1034 20.202 36.9521 19.8025 36.9516 19.3061V15.5342H36.4053V19.3379C36.4053 19.9737 36.6068 20.4889 37.0099 20.8837C37.413 21.2784 37.9587 21.4747 38.6471 21.4726C39.3356 21.4726 39.8821 21.2763 40.2868 20.8837C40.6914 20.4911 40.8935 19.9758 40.893 19.3379V15.5342H40.3412L40.3427 19.3061Z" fill="#58585A"/>
<path id="Vector_11" d="M44.511 18.2155L43.8844 18.0565C43.4555 17.9452 43.146 17.8107 42.9558 17.6528C42.8643 17.5798 42.7908 17.4864 42.7413 17.3799C42.6918 17.2734 42.6675 17.1568 42.6704 17.0392C42.6679 16.8856 42.7025 16.7336 42.7712 16.5964C42.8398 16.4593 42.9405 16.3409 43.0646 16.2516C43.3273 16.0471 43.6613 15.9451 44.0665 15.9456C44.4716 15.9462 44.8106 16.0468 45.0833 16.2477C45.2099 16.3394 45.3148 16.4582 45.3904 16.5956C45.466 16.733 45.5106 16.8856 45.5208 17.0424H46.0726C46.0675 16.8192 46.0123 16.6 45.9113 16.4012C45.8103 16.2025 45.666 16.0294 45.4893 15.8948C45.1157 15.5938 44.6477 15.4434 44.0854 15.4434C43.5115 15.4434 43.0385 15.5952 42.6665 15.8988C42.4887 16.034 42.3451 16.2096 42.2474 16.4114C42.1498 16.6132 42.1008 16.8354 42.1044 17.0599C42.098 17.2333 42.1277 17.4062 42.1916 17.5673C42.2556 17.7284 42.3524 17.8743 42.4757 17.9953C42.7232 18.2359 43.1174 18.425 43.6581 18.5628L44.3778 18.7487C44.8093 18.86 45.1225 19.0012 45.3175 19.1724C45.4127 19.2541 45.4885 19.3564 45.5393 19.4717C45.59 19.587 45.6144 19.7123 45.6107 19.8384C45.612 19.9983 45.5745 20.1562 45.5014 20.2982C45.4283 20.4402 45.3218 20.562 45.1913 20.653C44.9112 20.8649 44.5541 20.9709 44.1201 20.9709C43.6676 20.9709 43.2913 20.8623 42.9912 20.645C42.848 20.5507 42.7282 20.4244 42.641 20.276C42.5538 20.1276 42.5016 19.961 42.4883 19.7891H41.9365C41.9455 20.0265 42.0067 20.2589 42.1158 20.4695C42.2249 20.6801 42.379 20.8636 42.5671 21.0066C42.9581 21.3155 43.4574 21.47 44.0649 21.47C44.705 21.47 45.2152 21.3155 45.5957 21.0066C45.7803 20.8607 45.9282 20.673 46.0273 20.4587C46.1265 20.2444 46.1741 20.0095 46.1664 19.7732C46.1664 19.3679 46.0364 19.0436 45.7762 18.8004C45.5161 18.5572 45.0944 18.3622 44.511 18.2155Z" fill="#58585A"/>
<path id="Vector_12" d="M46.791 16.0365H48.7318V21.3796H49.282V16.0365H51.2227V15.5342H46.791V16.0365Z" fill="#58585A"/>
<path id="Vector_13" d="M55.7641 18.306C55.9874 17.9995 56.1034 17.6268 56.0936 17.2466C56.0936 16.7253 55.9257 16.3101 55.5899 16.0012C55.2541 15.6924 54.8032 15.5376 54.2372 15.5371H52.1641V21.3794H52.7111V18.9863H54.2822L55.6159 21.3794H56.2545L54.8521 18.8965C55.2152 18.8132 55.5379 18.6043 55.7641 18.306ZM54.1931 18.496H52.7111V16.0322H54.1734C54.597 16.0322 54.9283 16.1409 55.1674 16.3581C55.4065 16.5753 55.5266 16.8771 55.5277 17.2633C55.5277 17.6554 55.4105 17.9593 55.1761 18.1749C54.9417 18.3905 54.614 18.4976 54.1931 18.496Z" fill="#58585A"/>
<path id="Vector_14" d="M60.8608 15.5342L59.1447 18.3095H59.125L57.4089 15.5342H56.7822L58.8593 18.8523V21.3796H59.4104V18.8523L61.4875 15.5342H60.8608Z" fill="#58585A"/>
</g>
</g>
</g>
<g id="Frame 2087325555_2">
<g id="Frame 2087325526_2">
<g id="&#208;&#161;&#208;&#187;&#208;&#190;&#208;&#185; 1_2">
<path id="Vector_15" d="M7.85576 23.996C7.9344 23.6869 8.02966 23.3824 8.14112 23.0837C8.33188 22.4359 8.35553 22.3398 8.49821 21.692C8.73469 20.5643 8.71262 20.6589 8.73469 19.6765C8.73469 18.8818 8.73469 18.8127 8.6874 18.5726C8.56836 17.8526 8.25857 17.1572 7.78324 16.6533C7.23144 16.0533 6.66388 15.7894 5.80781 15.7409C5.37898 15.7171 4.80748 15.6209 4.52212 15.5025C4.27917 15.4203 4.04743 15.3076 3.83238 15.1671C3.40355 14.9032 2.90378 14.3032 2.80761 14.0147L2.78396 13.967L2.83126 13.9909L3.14342 14.3056C3.30975 14.4494 3.47686 14.5933 3.54781 14.641C3.90188 14.8303 4.2775 14.9755 4.66638 15.0733C4.81495 15.1063 4.96673 15.1223 5.11885 15.121C5.39824 15.1247 5.67731 15.1007 5.95206 15.0495C6.26107 15.0256 6.54721 14.9772 6.57086 14.9772C6.73719 14.9772 7.45137 15.4334 7.85576 15.7719C8.59099 16.4052 9.07999 17.2806 9.23604 18.2428C9.28957 18.7128 9.30565 19.1864 9.28412 19.6591C9.21239 20.4268 8.95068 21.4345 8.59359 22.3461C8.28458 23.156 7.88256 24.0676 7.85576 23.996ZM11.7593 23.7314C11.4976 23.1321 11.0924 22.1482 10.971 21.7644C10.6384 20.7566 10.4981 20.0604 10.4981 19.2927C10.4736 18.5965 10.5217 18.1649 10.688 17.6372C10.9346 16.8653 11.3976 16.1818 12.021 15.6694C12.3781 15.3809 13.0679 14.9732 13.2105 14.9732C13.235 14.9732 13.5203 15.0217 13.8057 15.0455C14.0884 15.0969 14.3753 15.1209 14.6626 15.117C15.0843 15.0992 15.4977 14.9931 15.8765 14.8055C16.21 14.6616 16.3495 14.5671 16.6861 14.2293C16.8288 14.0854 16.9714 13.9654 16.9714 13.9654C16.9951 13.9893 16.8997 14.1578 16.8288 14.2778C16.6588 14.5054 16.4745 14.7217 16.277 14.9255C15.9379 15.2163 15.54 15.4292 15.1111 15.5494C14.7382 15.6542 14.3553 15.7184 13.9689 15.7409C13.5564 15.7513 13.1507 15.8496 12.7786 16.0294C11.9217 16.461 11.2312 17.5172 11.0648 18.645C11.0412 18.8127 11.0412 19.0288 11.0412 19.5804C11.0412 20.5166 11.0412 20.5643 11.2777 21.7644C11.3614 22.2209 11.4808 22.67 11.6348 23.1075C11.8247 23.6837 11.9201 23.9476 11.8965 23.996C11.8965 24.0199 11.8247 23.8999 11.7538 23.7314H11.7593ZM7.49867 23.4675C7.51038 23.3948 7.52644 23.3229 7.54675 23.2522C7.59405 23.0837 7.59405 23.0137 7.59405 22.3644C7.5704 21.6682 7.5704 21.6444 7.52232 21.4282C7.40329 20.9243 7.18966 20.492 6.78449 19.8442C6.59451 19.5565 6.59451 19.5565 6.64181 19.5804C6.80836 19.7333 6.95989 19.902 7.09428 20.0843C7.29767 20.3534 7.47307 20.6429 7.6177 20.9482C7.83188 21.3477 7.95394 21.7908 7.97479 22.2444V22.5083L7.95114 22.4121C7.92749 22.3398 7.90384 22.3159 7.87941 22.3159C7.85497 22.3159 7.85576 22.3398 7.83211 22.4359C7.78481 22.8436 7.6177 23.3722 7.52232 23.4691C7.47502 23.4922 7.47502 23.4922 7.49867 23.4675ZM12.2354 23.4675C12.1401 23.3475 12.021 22.9637 11.9493 22.5798C11.902 22.2682 11.8784 22.2444 11.8303 22.4121L11.783 22.5321L11.8066 22.2682C11.8034 21.9896 11.8518 21.7128 11.9493 21.452C12.0683 21.0205 12.4491 20.3728 12.8062 19.9166C12.9252 19.7727 13.1396 19.5565 13.1396 19.5804C13.1632 19.5804 13.0915 19.6765 13.0206 19.7966C12.6162 20.4204 12.4018 20.8766 12.2827 21.3559C12.1874 21.6682 12.1874 21.8121 12.1874 22.4598C12.1874 23.0121 12.1874 23.0837 12.2354 23.276C12.2591 23.396 12.2827 23.4922 12.2827 23.4922C12.2703 23.4787 12.2536 23.47 12.2354 23.4675ZM8.07017 20.8766C8.07905 20.4496 8.03911 20.0229 7.95114 19.605C7.83211 19.1496 7.68943 18.8897 7.45137 18.6458C7.28426 18.4773 7.21489 18.4296 6.76084 18.1896C5.47594 17.4934 4.64273 16.8695 4.23834 16.3179C4.07123 16.1017 3.97663 15.8617 3.97663 15.7417C4.00028 15.694 4.00028 15.7179 4.14296 15.9102C4.33372 16.1486 4.35737 16.1979 4.66638 16.3871C4.94133 16.5994 5.23624 16.7842 5.54689 16.9386C6.02831 17.1429 6.52102 17.3191 7.02255 17.4663C7.6177 17.6587 7.81083 17.7302 7.92749 17.7787C8.14112 17.8987 8.40046 18.3302 8.52264 18.7626C8.56098 18.9682 8.57685 19.1774 8.56994 19.3865C8.56994 19.7942 8.56994 19.8419 8.54629 19.8419C8.52264 19.8419 8.52264 19.8419 8.40361 19.365L8.33188 19.0535L8.30823 19.725C8.30823 20.4212 8.28458 20.6851 8.21285 21.0451C8.18897 21.1358 8.15705 21.2241 8.11747 21.309L8.09382 21.4051L8.07017 20.8766ZM11.6663 21.332C11.619 21.2605 11.5709 21.0205 11.5236 20.8552C11.4755 20.5198 11.4755 20.3036 11.4519 19.7036V19.0558L11.351 19.392C11.2564 19.8474 11.2564 19.8474 11.2083 19.8474C11.1847 19.8474 11.1847 19.7997 11.1847 19.4159C11.2083 19.0082 11.2083 18.939 11.2564 18.7435C11.3754 18.312 11.6371 17.9042 11.8752 17.7604C11.9942 17.7119 12.2796 17.6157 12.7794 17.4719C13.2719 17.321 13.7566 17.1449 14.2314 16.9442C14.5182 16.7925 14.7961 16.6242 15.0638 16.4403C15.3499 16.2241 15.469 16.128 15.588 15.9635C15.6589 15.8911 15.707 15.7958 15.7543 15.7473L15.8016 15.6996L15.778 15.7958C15.7543 16.0342 15.588 16.2996 15.305 16.6112C14.832 17.1151 14.1155 17.5951 13.0442 18.1713C12.5713 18.4351 12.4727 18.5067 12.2827 18.699C12.1006 18.8944 11.97 19.1326 11.9028 19.392C11.7601 19.8236 11.712 20.1868 11.712 20.9275C11.712 21.1914 11.6884 21.4043 11.6884 21.4043C11.6859 21.379 11.6784 21.3544 11.6663 21.332ZM7.81083 20.5373C7.6959 20.4023 7.59153 20.2586 7.49867 20.1073C7.21331 19.6996 6.92795 19.3396 6.76084 19.2196C6.64635 19.1404 6.52709 19.0684 6.40375 19.0042C6.28472 18.9319 6.07109 18.788 5.97571 18.7157C5.73923 18.548 5.16615 17.9718 4.99982 17.7564C4.90444 17.6118 4.76334 17.3479 4.76334 17.3002C4.76334 17.2764 4.83507 17.3479 5.19216 17.6603C5.38214 17.8041 5.59655 17.9718 5.66513 18.0441C6.02222 18.308 6.35566 18.4757 6.59372 18.4995L6.6891 18.5242L6.83178 18.6918C6.92724 18.8334 7.0304 18.9695 7.14079 19.0996C7.42693 19.5081 7.665 19.8943 7.75959 20.1796C7.78727 20.2535 7.81912 20.3256 7.85497 20.3958C7.8743 20.4411 7.88241 20.4905 7.87862 20.5397V20.6358L7.81083 20.5373ZM11.8807 20.5373C11.8891 20.4872 11.9051 20.4387 11.928 20.3934C11.9642 20.3234 11.996 20.2512 12.0234 20.1772C12.1424 19.8411 12.3324 19.5057 12.7612 18.9295C13.0702 18.5218 13.0939 18.5218 13.1656 18.5218C13.2412 18.5127 13.3142 18.4881 13.38 18.4494C13.689 18.3533 13.9752 18.1617 14.5222 17.7056C14.6886 17.5617 14.8793 17.394 14.9266 17.3455C15.022 17.2978 15.022 17.2978 14.9984 17.3455C14.8793 17.754 13.9988 18.6418 13.38 19.0018C13.2633 19.0552 13.1517 19.1193 13.0466 19.1933C12.8803 19.3133 12.6185 19.6257 12.2851 20.1049C11.8784 20.6843 11.8784 20.6636 11.8784 20.5404L11.8807 20.5373ZM11.0475 15.8578C11.0474 15.7932 11.0554 15.7288 11.0712 15.6662C11.1192 15.5224 11.1192 15.4024 11.1429 15.0423C11.1429 14.5146 11.1192 14.2476 11.0475 13.9146C10.9048 13.2668 10.7141 12.8583 9.95259 11.6829C9.61914 11.179 9.42917 10.819 9.45282 10.7952C9.54214 10.7692 9.62959 10.7371 9.71452 10.699C9.88085 10.6267 9.95101 10.579 9.95101 10.5551C9.90684 10.5112 9.85912 10.4711 9.80833 10.4351C9.76207 10.4024 9.72179 10.3618 9.6893 10.3151C9.76547 10.1947 9.85312 10.0821 9.95101 9.97895C10.0937 9.81125 10.2127 9.6674 10.1875 9.6674C10.1875 9.64277 9.90213 9.78741 9.73502 9.85894C9.28333 10.1466 8.87816 10.5067 8.87816 10.6752C8.87816 10.699 8.94989 10.8905 9.02163 11.1067C9.09336 11.3229 9.18795 11.5629 9.2116 11.663C9.26768 11.8153 9.28396 11.9795 9.2589 12.1399C9.2589 12.4284 9.2589 12.4522 9.2116 12.5722C9.16648 12.6649 9.1016 12.7463 9.02163 12.8107C8.99719 12.8107 8.99719 12.8107 9.04527 12.7145C9.18795 12.2376 9.09257 11.6591 8.78356 11.3229C8.64912 11.1878 8.47262 11.1036 8.2838 11.0845C8.14033 11.0606 8.11668 11.0606 7.64056 11.1568L7.59326 11.1806L7.64056 11.1083C7.69001 11.0663 7.74664 11.0337 7.80767 11.0121C7.93541 10.956 8.03735 10.8532 8.09303 10.7244C8.14033 10.6283 8.30744 10.486 8.5455 10.2929C9.33379 9.66899 9.99673 9.28513 10.4728 9.23665C10.8299 9.18896 11.1634 9.30897 11.3061 9.59667C11.3778 9.71668 11.3778 9.76436 11.3061 9.69283C11.1397 9.54898 10.8536 9.59667 10.4492 9.86053C10.3078 9.9547 10.1797 10.0678 10.0685 10.1967C10.0448 10.2444 10.0448 10.2682 10.0921 10.3167C10.1402 10.4129 10.3286 10.5806 10.4973 10.6767C10.5983 10.7343 10.7144 10.7592 10.8299 10.7483C10.9197 10.7539 11.0095 10.7375 11.0917 10.7006C11.1161 10.7006 11.1634 10.6767 11.1634 10.7006C11.187 10.7006 11.187 10.7483 11.187 10.8206C11.187 10.9168 11.187 10.9406 11.1397 10.9644C11.0444 11.0368 10.7109 11.0606 10.3515 11.0121L10.0661 10.9883V11.0606C10.0926 11.154 10.1327 11.2429 10.1851 11.3245C10.3655 11.6719 10.5894 11.9946 10.8512 12.2845C11.0183 12.4522 11.042 12.4999 11.1374 12.7614C11.2888 13.2504 11.3685 13.7591 11.3739 14.2714C11.3739 14.8468 11.2785 15.3745 11.1594 15.663C11.0924 15.7894 11.0451 15.8848 11.0451 15.8609L11.0475 15.8578ZM5.69035 14.2261C4.71446 14.13 3.52416 13.7222 2.57192 13.1707C2.07626 12.8503 1.61384 12.4805 1.19164 12.0668C1.00166 11.8506 0.620923 11.3467 0.358425 10.9629C0.16845 10.6752 -0.0223142 10.3151 0.00212247 10.2913C0.00212247 10.2666 0.121153 10.3628 0.263832 10.5067C0.691397 10.9142 1.15322 11.2835 1.64411 11.6106C1.92947 11.7791 2.47732 12.0668 2.57192 12.0874C2.64365 12.1113 2.64365 12.1113 2.62 12.0636C2.59635 12.0397 2.40559 11.8252 2.19118 11.5867C1.57632 10.9676 1.14434 10.3898 0.810898 9.71827C0.358425 8.73436 0.0730677 7.84662 0.0257709 7.0304C0.00212247 6.79198 0.00212247 6.69502 0.0494193 6.23565C0.0730677 5.94795 0.0967161 5.68409 0.0967161 5.65945C0.121153 5.61177 0.121153 5.63561 0.239395 5.89788C0.322088 6.15062 0.417595 6.39891 0.525541 6.64177C0.715516 7.17028 0.739953 7.26565 0.90628 7.57799C1.26337 8.22572 1.66776 8.82576 1.71506 8.77728C1.71506 8.77728 1.64411 8.51342 1.54873 8.22572C1.23972 7.29029 1.19164 6.95411 1.16799 6.04252C1.16799 5.37016 1.19164 5.05862 1.26337 4.62627C1.36213 4.11856 1.50537 3.62068 1.69141 3.13849C1.8128 2.80787 2.07215 2.27936 2.14388 2.20783L2.19118 2.15935L2.16753 2.20783C2.16753 2.23167 2.12023 2.42321 2.07215 2.61554C1.88217 3.41029 1.85852 3.81562 1.85852 4.75105C1.86284 5.25879 1.91857 5.76476 2.02485 6.26108C2.12023 6.71727 2.23926 7.10114 2.31021 7.10114V7.02882C2.31021 6.71727 2.54669 5.94954 2.83363 5.15717C3.14342 4.41328 3.66684 3.47785 4.09487 2.92549C4.23755 2.73396 4.99903 1.96622 5.26074 1.72621C5.5461 1.46235 5.99857 1.17385 6.37931 0.931453C6.68989 0.767734 7.45137 0.383867 7.78481 0.238427C8.07017 0.142261 8.30823 0.0460958 8.52264 0H8.59359L8.54629 0.0476853C8.52264 0.0723227 8.37918 0.167693 8.2365 0.263859C8.09382 0.360024 7.92749 0.476853 7.85576 0.527717C6.9516 1.32009 6.47548 1.82794 5.99936 2.49553C5.27519 3.52029 4.77983 4.69106 4.54735 5.92728C4.47859 6.332 4.44693 6.74223 4.45275 7.1528C4.44668 7.70942 4.50247 8.26497 4.61908 8.80907C4.75114 9.4626 4.93407 10.1046 5.16615 10.7292C5.30961 11.0654 5.63911 11.7624 5.90398 12.2647C6.14046 12.697 6.28472 12.9609 6.28472 12.9847C6.26107 12.9847 5.97571 12.6732 5.83303 12.4808C5.47594 12.004 4.85714 11.0415 4.59543 10.513C4.154 9.64885 3.86411 8.71422 3.73857 7.75045C3.69049 7.29506 3.66684 6.31115 3.73857 5.90265C3.83244 5.19601 4.0337 4.50816 4.3353 3.86331C4.42989 3.67097 4.50163 3.52712 4.47798 3.52712C4.45433 3.50328 4.26357 3.7433 4.12089 3.95947C3.59309 4.72609 3.22097 5.59043 3.02597 6.50269C2.85964 7.12657 2.8352 7.39043 2.81155 8.33062V9.09836L2.74061 9.02604C2.62158 8.93066 2.43081 8.64217 2.2164 8.16214C1.88375 7.51441 1.76472 7.32287 1.78837 7.49057C1.83566 7.75443 1.93104 8.0469 2.2164 8.69065C2.4789 9.31453 2.66887 9.6984 2.90694 9.96226C2.97867 10.0346 3.04961 10.13 3.07326 10.1538L3.12135 10.2261L2.95423 10.2023C2.66887 10.1784 2.50255 10.13 2.12181 9.93841C1.99053 9.86651 1.85524 9.80229 1.71663 9.74608L1.64569 9.72224L1.74107 9.88993C2.02643 10.2984 2.62158 10.9938 3.16864 11.6177C3.69206 12.1741 3.88283 12.3616 4.14454 12.554C4.66795 12.9378 4.73969 12.9855 4.73969 13.0093C4.71604 13.0093 4.3353 12.9378 4.0728 12.8655C3.54702 12.7415 3.40513 12.7161 3.11977 12.7161L2.83363 12.6922L2.88171 12.7399C3.00074 12.9545 3.73857 13.3177 4.83349 13.7493C5.28518 13.9178 5.90398 14.1816 6.02301 14.2261L6.09474 14.25H5.97571C5.88003 14.2521 5.78439 14.2441 5.69035 14.2261ZM13.6867 14.25C13.7111 14.25 14.3055 14.0115 14.877 13.7731C15.9719 13.3408 16.69 13.0046 16.8524 12.7892L16.9241 12.7169H16.7334C16.4969 12.693 16.2604 12.7407 15.7575 12.8607C15.521 12.9092 15.305 12.9569 15.2341 12.9807C15.186 12.9807 15.115 12.9807 15.0914 13.0046C15.0669 13.0046 15.0669 13.0046 15.0669 12.9807C15.0669 12.9807 15.2577 12.8369 15.4721 12.6692C15.9002 12.3569 16.0428 12.1923 16.6143 11.5653C16.9521 11.224 17.27 10.8634 17.5666 10.4852C17.8283 10.1737 18.1373 9.74131 18.1136 9.74131C18.09 9.71747 17.8772 9.78979 17.6407 9.93365C17.498 10.0052 17.3317 10.0775 17.2363 10.1252C17.0936 10.1737 16.7365 10.2213 16.6892 10.1975C16.6648 10.1975 16.7365 10.1013 16.8556 9.98133C17.1173 9.66979 17.308 9.3336 17.5697 8.70972C17.6643 8.44586 17.7834 8.13352 17.8314 7.98967C17.9268 7.72582 17.9978 7.46196 17.9741 7.43811C17.9505 7.41427 17.9024 7.50964 17.6643 8.01352C17.3317 8.66204 17.2126 8.85357 17.0936 8.99742L16.9746 9.09359L16.9509 8.32586C16.9509 7.46196 16.9273 7.24578 16.8319 6.74191C16.7602 6.45421 16.6892 6.21419 16.5458 5.73416C16.3613 5.21809 16.1304 4.72009 15.856 4.24638C15.5943 3.83867 15.3326 3.47864 15.3042 3.52633C15.3358 3.63341 15.3756 3.73784 15.4232 3.83867C15.6408 4.29916 15.8083 4.78199 15.923 5.27876C16.042 5.78264 16.0665 6.02266 16.0665 6.76655C16.0757 7.07884 16.0676 7.3914 16.042 7.70277C15.9164 8.62604 15.6506 9.52431 15.2538 10.366C14.8386 11.1424 14.3695 11.8881 13.8498 12.5977C13.6827 12.79 13.4928 13.0054 13.4928 12.9815C13.4928 12.9577 13.5881 12.79 13.8735 12.2138C14.4206 11.2537 14.635 10.7499 14.8983 9.86212C15.1175 9.13595 15.254 8.38697 15.305 7.62965C15.3819 6.46456 15.1865 5.29754 14.7343 4.22253C14.2345 2.97477 13.4486 1.8947 12.3064 0.884563C11.8539 0.476853 11.8334 0.45301 11.5449 0.26068C11.1878 0.0222531 11.1642 -0.00317902 11.3305 0.0222531C11.902 0.142261 13.0915 0.718459 13.8057 1.19849C14.1864 1.46235 14.4245 1.65389 14.9487 2.15776C15.4217 2.61395 15.5675 2.7578 15.7575 3.02166C16.1752 3.61667 16.534 4.25153 16.8288 4.91715C17.1614 5.73336 17.4476 6.66561 17.4476 7.02882C17.4476 7.31731 17.6375 6.86112 17.7566 6.26108C17.8756 5.61336 17.8992 5.46633 17.8992 4.70177C17.9237 3.74171 17.8756 3.43016 17.6628 2.51778C17.6472 2.39631 17.6235 2.27603 17.5918 2.15776C17.6155 2.15776 17.7108 2.30161 17.8062 2.51778C18.2085 3.33211 18.4749 4.20776 18.5945 5.10948C18.6181 5.44566 18.6181 6.42957 18.5709 6.74111C18.514 7.25738 18.3941 7.76458 18.2138 8.25115C18.1184 8.56349 18.0474 8.77887 18.0711 8.77887C18.1665 8.77887 18.8594 7.65111 19.0706 7.14723C19.1179 7.05186 19.2369 6.71568 19.356 6.3795C19.475 6.06796 19.5925 5.75562 19.6177 5.70793C19.6658 5.63561 19.6658 5.61177 19.6894 5.65945C19.6894 5.70793 19.7131 5.94795 19.7367 6.21578C19.7848 6.79198 19.7848 7.05584 19.7131 7.48739C19.5467 8.44745 19.0706 9.64674 18.5709 10.4153C18.2878 10.8267 17.9691 11.2121 17.6186 11.5669C17.4042 11.8053 17.1906 12.0223 17.1661 12.0437L17.1425 12.1152L17.1906 12.0914C17.3569 12.0437 18.0474 11.6837 18.4518 11.3952C18.7135 11.2037 19.166 10.8198 19.4987 10.5321C19.6413 10.3875 19.7604 10.2674 19.7848 10.2937C19.6791 10.5308 19.5499 10.7566 19.3993 10.9676C19.159 11.3628 18.8798 11.7326 18.5661 12.0715C18.316 12.3406 18.0377 12.5815 17.7361 12.79C16.6892 13.6054 15.1655 14.1816 13.8806 14.2531L13.6867 14.25Z" fill="#58585A"/>
<path id="Vector_16" d="M22.915 13.0481H24.535V8.64439H29.0195V7.26629H24.535V3.93388H29.4318V2.52637H22.915V13.0481Z" fill="#58585A"/>
<path id="Vector_17" d="M37.4665 11.6335H32.4617V8.36702H37.1993V7.01117H32.4617V3.93388H37.4665V2.52637H30.8418V13.0481H37.4665V11.6335Z" fill="#58585A"/>
<path id="Vector_18" d="M40.7064 5.29768H40.7719L46.1818 13.0481H47.6425V2.52637H46.066V10.2848H46.0076L40.5985 2.52637H39.1299V13.0481H40.7064V5.29768Z" fill="#58585A"/>
<path id="Vector_19" d="M51.1863 2.52637H49.5664V13.0481H51.1863V2.52637Z" fill="#58585A"/>
<path id="Vector_20" d="M52.4668 13.0481H54.2601L56.893 9.0378H56.9434L59.5392 13.0481H61.4343L57.9627 7.82738V7.78367L61.4997 2.52637H59.6701L57.0664 6.59551H57.0081L54.4336 2.52637H52.5023L55.9305 7.72566V7.77652L52.4668 13.0481Z" fill="#58585A"/>
<path id="Vector_21" d="M23.4779 15.5342H22.9316V21.3796H23.4779V15.5342Z" fill="#58585A"/>
<path id="Vector_22" d="M28.7793 20.4156H28.7518L25.3519 15.5342H24.8096V21.3796H25.3519V16.4942H25.3803L28.792 21.3796H29.3217V15.5342H28.7793V20.4156Z" fill="#58585A"/>
<path id="Vector_23" d="M32.5617 15.5342H30.6533V21.3788H32.5617C33.432 21.3788 34.1076 21.1229 34.5884 20.6111C35.0693 20.0993 35.3097 19.3803 35.3097 18.4541C35.3097 17.5306 35.0687 16.8129 34.5868 16.3011C34.1049 15.7893 33.4299 15.5337 32.5617 15.5342ZM34.1746 20.2495C33.7904 20.6686 33.242 20.8778 32.5294 20.8773H31.2035V16.0365H32.5294C33.242 16.0365 33.7904 16.2458 34.1746 16.6643C34.5587 17.0829 34.7511 17.6811 34.7516 18.4589C34.7516 19.2346 34.5593 19.8314 34.1746 20.2495Z" fill="#58585A"/>
<path id="Vector_24" d="M40.3427 19.3061C40.3427 19.8031 40.1914 20.2026 39.8887 20.5046C39.586 20.8066 39.1721 20.9579 38.6471 20.9584C38.1216 20.9584 37.7078 20.8071 37.4056 20.5046C37.1034 20.202 36.9521 19.8025 36.9516 19.3061V15.5342H36.4053V19.3379C36.4053 19.9737 36.6068 20.4889 37.0099 20.8837C37.413 21.2784 37.9587 21.4747 38.6471 21.4726C39.3356 21.4726 39.8821 21.2763 40.2868 20.8837C40.6914 20.4911 40.8935 19.9758 40.893 19.3379V15.5342H40.3412L40.3427 19.3061Z" fill="#58585A"/>
<path id="Vector_25" d="M44.511 18.2155L43.8844 18.0565C43.4555 17.9452 43.146 17.8107 42.9558 17.6528C42.8643 17.5798 42.7908 17.4864 42.7413 17.3799C42.6918 17.2734 42.6675 17.1568 42.6704 17.0392C42.6679 16.8856 42.7025 16.7336 42.7712 16.5964C42.8398 16.4593 42.9405 16.3409 43.0646 16.2516C43.3273 16.0471 43.6613 15.9451 44.0665 15.9456C44.4716 15.9462 44.8106 16.0468 45.0833 16.2477C45.2099 16.3394 45.3148 16.4582 45.3904 16.5956C45.466 16.733 45.5106 16.8856 45.5208 17.0424H46.0726C46.0675 16.8192 46.0123 16.6 45.9113 16.4012C45.8103 16.2025 45.666 16.0294 45.4893 15.8948C45.1157 15.5938 44.6477 15.4434 44.0854 15.4434C43.5115 15.4434 43.0385 15.5952 42.6665 15.8988C42.4887 16.034 42.3451 16.2096 42.2474 16.4114C42.1498 16.6132 42.1008 16.8354 42.1044 17.0599C42.098 17.2333 42.1277 17.4062 42.1916 17.5673C42.2556 17.7284 42.3524 17.8743 42.4757 17.9953C42.7232 18.2359 43.1174 18.425 43.6581 18.5628L44.3778 18.7487C44.8093 18.86 45.1225 19.0012 45.3175 19.1724C45.4127 19.2541 45.4885 19.3564 45.5393 19.4717C45.59 19.587 45.6144 19.7123 45.6107 19.8384C45.612 19.9983 45.5745 20.1562 45.5014 20.2982C45.4283 20.4402 45.3218 20.562 45.1913 20.653C44.9112 20.8649 44.5541 20.9709 44.1201 20.9709C43.6676 20.9709 43.2913 20.8623 42.9912 20.645C42.848 20.5507 42.7282 20.4244 42.641 20.276C42.5538 20.1276 42.5016 19.961 42.4883 19.7891H41.9365C41.9455 20.0265 42.0067 20.2589 42.1158 20.4695C42.2249 20.6801 42.379 20.8636 42.5671 21.0066C42.9581 21.3155 43.4574 21.47 44.0649 21.47C44.705 21.47 45.2152 21.3155 45.5957 21.0066C45.7803 20.8607 45.9282 20.673 46.0273 20.4587C46.1265 20.2444 46.1741 20.0095 46.1664 19.7732C46.1664 19.3679 46.0364 19.0436 45.7762 18.8004C45.5161 18.5572 45.0944 18.3622 44.511 18.2155Z" fill="#58585A"/>
<path id="Vector_26" d="M46.791 16.0365H48.7318V21.3796H49.282V16.0365H51.2227V15.5342H46.791V16.0365Z" fill="#58585A"/>
<path id="Vector_27" d="M55.7641 18.306C55.9874 17.9995 56.1034 17.6268 56.0936 17.2466C56.0936 16.7253 55.9257 16.3101 55.5899 16.0012C55.2541 15.6924 54.8032 15.5376 54.2372 15.5371H52.1641V21.3794H52.7111V18.9863H54.2822L55.6159 21.3794H56.2545L54.8521 18.8965C55.2152 18.8132 55.5379 18.6043 55.7641 18.306ZM54.1931 18.496H52.7111V16.0322H54.1734C54.597 16.0322 54.9283 16.1409 55.1674 16.3581C55.4065 16.5753 55.5266 16.8771 55.5277 17.2633C55.5277 17.6554 55.4105 17.9593 55.1761 18.1749C54.9417 18.3905 54.614 18.4976 54.1931 18.496Z" fill="#58585A"/>
<path id="Vector_28" d="M60.8608 15.5342L59.1447 18.3095H59.125L57.4089 15.5342H56.7822L58.8593 18.8523V21.3796H59.4104V18.8523L61.4875 15.5342H60.8608Z" fill="#58585A"/>
</g>
</g>
</g>
</g>
</g>
<defs>
<clipPath id="clip0_2_4">
<rect width="1440" height="9300" fill="white" transform="translate(-1339 -9237)"/>
</clipPath>
</defs>
</svg>
