<svg width="1360" height="118" viewBox="0 0 1360 118" fill="none" xmlns="http://www.w3.org/2000/svg">
<path d="M1360 56.8319V103.101C1358.48 104.836 1356.23 106.885 1353.25 109.25C1350.27 111.562 1346.31 113.611 1341.39 115.398C1336.53 117.132 1330.48 117.999 1323.26 117.999C1317.03 117.999 1311.35 117.001 1306.22 115.004C1301.15 113.007 1296.78 109.985 1293.11 105.939C1289.5 101.84 1286.7 96.743 1284.71 90.6473C1282.78 84.5516 1281.81 77.3524 1281.81 69.0496V49.0284C1281.81 40.7782 1282.7 33.6052 1284.48 27.5095C1286.31 21.3612 1288.95 16.2377 1292.41 12.1389C1295.91 8.04002 1300.13 4.99217 1305.05 2.9953C1309.97 0.998435 1315.57 0 1321.85 0C1330.17 0 1337.02 1.4451 1342.41 4.33531C1347.86 7.17296 1351.99 11.3769 1354.82 16.9471C1357.7 22.5173 1359.42 29.3487 1360 37.4413H1339.59C1339.17 32.6068 1338.31 28.7444 1337 25.8542C1335.69 22.964 1333.83 20.862 1331.42 19.5483C1329.07 18.2346 1326.01 17.5777 1322.24 17.5777C1318.89 17.5777 1315.98 18.182 1313.52 19.3906C1311.12 20.5467 1309.1 22.386 1307.48 24.9083C1305.91 27.4307 1304.73 30.6624 1303.95 34.6036C1303.21 38.5448 1302.85 43.3005 1302.85 48.8707V69.0496C1302.85 74.6198 1303.29 79.4018 1304.18 83.3956C1305.12 87.3893 1306.49 90.6473 1308.26 93.1697C1310.04 95.6921 1312.27 97.5313 1314.94 98.6874C1317.61 99.8434 1320.72 100.421 1324.28 100.421C1327.42 100.421 1329.93 100.106 1331.82 99.4756C1333.7 98.845 1335.19 98.1356 1336.29 97.3474C1337.44 96.5066 1338.36 95.876 1339.04 95.4556V73.0696H1321.61V56.8319H1360Z" fill="#141414"/>
<path d="M1198.83 1.65625H1234.39C1241.98 1.65625 1248.44 2.96998 1253.78 5.59744C1259.12 8.2249 1263.18 12.1135 1265.95 17.2634C1268.78 22.4132 1270.19 28.7454 1270.19 36.2599C1270.19 42.2505 1269.33 47.4529 1267.6 51.867C1265.92 56.2286 1263.52 59.8807 1260.38 62.8235C1257.29 65.7663 1253.55 68.0521 1249.15 69.6812L1242.79 73.3071H1213.35L1213.27 55.7294H1233.92C1237.32 55.7294 1240.15 54.9674 1242.4 53.4435C1244.7 51.9195 1246.4 49.8176 1247.5 47.1376C1248.65 44.405 1249.23 41.2783 1249.23 37.7575C1249.23 33.9214 1248.71 30.6371 1247.66 27.9046C1246.66 25.1195 1245.07 22.9912 1242.87 21.5198C1240.72 20.0485 1237.9 19.3128 1234.39 19.3128H1219.87V116.424H1198.83V1.65625ZM1251.43 116.424L1229.99 65.0306H1252.05L1273.88 115.32V116.424H1251.43Z" fill="#141414"/>
<path d="M1181.94 1.65625V116.424H1161.45L1123.3 40.8317V116.424H1103.2V1.65625H1123.38L1161.85 77.9577V1.65625H1181.94Z" fill="#141414"/>
<path d="M1000.43 1.65625L1019.19 54.7046L1037.88 1.65625H1060.96L1029.79 74.4894V116.424H1008.6V74.4894L977.43 1.65625H1000.43Z" fill="#141414"/>
<path d="M944.929 19.7857L918.787 116.424H896.648L932.682 1.65625H946.499L944.929 19.7857ZM965.576 116.424L939.434 19.7857L937.628 1.65625H951.602L987.793 116.424H965.576ZM966.283 73.7012V91.2789H913.841V73.7012H966.283Z" fill="#141414"/>
<path d="M870.423 86.5488C870.423 84.2892 870.188 82.2923 869.717 80.5582C869.298 78.7715 868.46 77.1425 867.204 75.6711C865.948 74.1997 864.143 72.7546 861.788 71.3358C859.432 69.8644 856.397 68.3668 852.681 66.8428C848.285 65.0562 844.124 63.1644 840.199 61.1675C836.273 59.1181 832.767 56.7534 829.679 54.0734C826.591 51.3934 824.157 48.2404 822.378 44.6145C820.651 40.9886 819.787 36.7584 819.787 31.9239C819.787 27.1945 820.625 22.8854 822.299 18.9968C824.027 15.0556 826.46 11.6925 829.6 8.90736C832.741 6.06971 836.457 3.88892 840.748 2.36499C845.092 0.841065 849.881 0.0791016 855.115 0.0791016C862.494 0.0791016 868.827 1.6293 874.113 4.7297C879.399 7.83011 883.481 12.034 886.36 17.3415C889.238 22.649 890.677 28.6396 890.677 35.3133H869.717C869.717 31.8451 869.193 28.771 868.146 26.0909C867.152 23.3584 865.556 21.2301 863.358 19.7062C861.16 18.1823 858.333 17.4203 854.879 17.4203C851.634 17.4203 848.965 18.0772 846.872 19.3909C844.778 20.6521 843.234 22.3862 842.24 24.5933C841.245 26.7478 840.748 29.2176 840.748 32.0027C840.748 33.9996 841.193 35.8125 842.083 37.4416C843.025 39.018 844.307 40.4631 845.929 41.7769C847.552 43.0906 849.515 44.3518 851.817 45.5604C854.173 46.7165 856.789 47.8463 859.668 48.9498C864.954 50.9467 869.586 53.1538 873.563 55.571C877.541 57.9357 880.838 60.6158 883.455 63.6111C886.124 66.5538 888.113 69.8907 889.421 73.6217C890.73 77.3527 891.384 81.6092 891.384 86.3911C891.384 91.1206 890.573 95.4296 888.95 99.3182C887.328 103.207 884.973 106.544 881.885 109.329C878.797 112.114 875.055 114.268 870.659 115.792C866.315 117.264 861.474 117.999 856.135 117.999C851.006 117.999 846.113 117.264 841.455 115.792C836.849 114.268 832.767 111.983 829.208 108.935C825.649 105.887 822.849 102.051 820.808 97.4265C818.767 92.7496 817.746 87.2582 817.746 80.9523H838.707C838.707 84.4731 839.1 87.5209 839.885 90.0958C840.67 92.6182 841.847 94.6676 843.417 96.2441C844.987 97.768 846.872 98.8978 849.07 99.6335C851.268 100.317 853.754 100.658 856.528 100.658C859.825 100.658 862.494 100.054 864.535 98.8453C866.576 97.6367 868.068 95.9814 869.01 93.8794C869.952 91.7249 870.423 89.2813 870.423 86.5488Z" fill="#141414"/>
<path d="M804.866 1.65625V116.424H784.376L746.222 40.8317V116.424H726.125V1.65625H746.301L784.768 77.9577V1.65625H804.866Z" fill="#141414"/>
<path d="M689.695 1.65625H710.734V80.953C710.734 89.7287 709.112 96.8491 705.867 102.314C702.622 107.779 698.199 111.773 692.599 114.295C686.999 116.765 680.693 118 673.679 118C666.509 118 660.124 116.765 654.524 114.295C648.924 111.773 644.528 107.779 641.335 102.314C638.195 96.8491 636.625 89.7287 636.625 80.953V1.65625H657.586V80.953C657.586 86.1553 658.214 90.1753 659.47 93.013C660.778 95.8507 662.61 97.795 664.965 98.846C667.321 99.8969 670.225 100.422 673.679 100.422C677.134 100.422 680.038 99.8969 682.394 98.846C684.749 97.795 686.554 95.8507 687.81 93.013C689.067 90.1753 689.695 86.1553 689.695 80.953V1.65625Z" fill="#141414"/>
<path d="M603.732 86.5488C603.732 84.2892 603.496 82.2923 603.025 80.5582C602.606 78.7715 601.769 77.1425 600.513 75.6711C599.257 74.1997 597.451 72.7546 595.096 71.3358C592.741 69.8644 589.705 68.3668 585.99 66.8428C581.593 65.0562 577.432 63.1644 573.507 61.1675C569.582 59.1181 566.075 56.7534 562.987 54.0734C559.9 51.3934 557.466 48.2404 555.686 44.6145C553.959 40.9886 553.096 36.7584 553.096 31.9239C553.096 27.1945 553.933 22.8854 555.608 18.9968C557.335 15.0556 559.769 11.6925 562.909 8.90736C566.049 6.06971 569.765 3.88892 574.057 2.36499C578.401 0.841065 583.19 0.0791016 588.423 0.0791016C595.803 0.0791016 602.135 1.6293 607.421 4.7297C612.707 7.83011 616.79 12.034 619.668 17.3415C622.547 22.649 623.986 28.6396 623.986 35.3133H603.025C603.025 31.8451 602.502 28.771 601.455 26.0909C600.461 23.3584 598.864 21.2301 596.666 19.7062C594.468 18.1823 591.642 17.4203 588.188 17.4203C584.943 17.4203 582.274 18.0772 580.18 19.3909C578.087 20.6521 576.543 22.3862 575.548 24.5933C574.554 26.7478 574.057 29.2176 574.057 32.0027C574.057 33.9996 574.502 35.8125 575.391 37.4416C576.333 39.018 577.616 40.4631 579.238 41.7769C580.861 43.0906 582.823 44.3518 585.126 45.5604C587.481 46.7165 590.098 47.8463 592.976 48.9498C598.263 50.9467 602.894 53.1538 606.872 55.571C610.85 57.9357 614.147 60.6158 616.764 63.6111C619.433 66.5538 621.422 69.8907 622.73 73.6217C624.038 77.3527 624.693 81.6092 624.693 86.3911C624.693 91.1206 623.881 95.4296 622.259 99.3182C620.637 103.207 618.281 106.544 615.193 109.329C612.106 112.114 608.364 114.268 603.967 115.792C599.623 117.264 594.782 117.999 589.444 117.999C584.315 117.999 579.421 117.264 574.763 115.792C570.158 114.268 566.075 111.983 562.516 108.935C558.958 105.887 556.158 102.051 554.116 97.4265C552.075 92.7496 551.055 87.2582 551.055 80.9523H572.016C572.016 84.4731 572.408 87.5209 573.193 90.0958C573.978 92.6182 575.156 94.6676 576.726 96.2441C578.296 97.768 580.18 98.8978 582.378 99.6335C584.576 100.317 587.062 100.658 589.836 100.658C593.134 100.658 595.803 100.054 597.844 98.8453C599.885 97.6367 601.377 95.9814 602.319 93.8794C603.261 91.7249 603.732 89.2813 603.732 86.5488Z" fill="#141414"/>
<path d="M505.592 58.8818V75.7501H468.773V58.8818H505.592Z" fill="#141414"/>
<path d="M345.823 99.5544V116.423H279.251V101.919L310.339 61.8767C313.479 57.5676 315.939 53.7841 317.719 50.526C319.498 47.268 320.754 44.3515 321.487 41.7766C322.219 39.1491 322.586 36.6268 322.586 34.2095C322.586 30.7938 322.141 27.7985 321.251 25.2236C320.362 22.5961 319.053 20.573 317.326 19.1542C315.651 17.6828 313.584 16.9471 311.124 16.9471C308.036 16.9471 305.498 17.8142 303.509 19.5483C301.52 21.2824 300.029 23.6734 299.034 26.7213C298.092 29.7691 297.621 33.2374 297.621 37.126H277.445C277.445 30.3997 278.78 24.2252 281.449 18.6024C284.171 12.9271 288.044 8.40787 293.068 5.04472C298.145 1.68157 304.242 0 311.36 0C318.163 0 323.894 1.31373 328.552 3.94119C333.21 6.56865 336.743 10.2734 339.15 15.0553C341.61 19.8373 342.84 25.5389 342.84 32.1601C342.84 35.8385 342.343 39.4644 341.349 43.0378C340.354 46.6111 338.967 50.1582 337.188 53.679C335.408 57.1998 333.236 60.7731 330.672 64.399C328.107 67.9724 325.255 71.6508 322.115 75.4344L304.844 99.5544H345.823Z" fill="#141414"/>
<path d="M266.69 49.1863V68.577C266.69 77.3527 265.905 84.8672 264.335 91.1206C262.765 97.3739 260.541 102.497 257.662 106.491C254.836 110.432 251.434 113.349 247.456 115.241C243.479 117.08 239.083 117.999 234.268 117.999C230.447 117.999 226.862 117.421 223.512 116.265C220.163 115.057 217.127 113.217 214.406 110.748C211.737 108.225 209.434 105.02 207.497 101.131C205.613 97.2425 204.148 92.6182 203.101 87.2582C202.107 81.8456 201.609 75.6186 201.609 68.577V49.1863C201.609 40.358 202.394 32.8435 203.965 26.6427C205.587 20.4419 207.837 15.3709 210.716 11.4297C213.595 7.48854 217.023 4.62461 221 2.83793C224.978 0.998712 229.374 0.0791016 234.189 0.0791016C238.01 0.0791016 241.595 0.657143 244.944 1.81322C248.294 2.96931 251.277 4.78225 253.894 7.25206C256.563 9.66933 258.866 12.8223 260.802 16.7109C262.739 20.547 264.204 25.1713 265.199 30.5839C266.193 35.9439 266.69 42.1447 266.69 49.1863ZM246.593 71.4146V46.1122C246.593 41.8032 246.41 38.0196 246.043 34.7616C245.677 31.5035 245.154 28.771 244.473 26.5639C243.793 24.3043 242.929 22.4651 241.883 21.0462C240.888 19.6274 239.737 18.6027 238.428 17.9721C237.12 17.289 235.707 16.9474 234.189 16.9474C232.253 16.9474 230.525 17.4729 229.008 18.5239C227.49 19.5223 226.182 21.1776 225.082 23.4898C223.983 25.7494 223.146 28.7447 222.57 32.4757C221.995 36.2067 221.707 40.7522 221.707 46.1122V71.4146C221.707 75.7762 221.89 79.6123 222.256 82.9229C222.675 86.1809 223.224 88.966 223.905 91.2782C224.638 93.5904 225.501 95.4821 226.496 96.9535C227.49 98.3723 228.641 99.4233 229.95 100.106C231.258 100.79 232.697 101.131 234.268 101.131C236.204 101.131 237.931 100.606 239.449 99.5547C241.019 98.4512 242.327 96.7433 243.374 94.4312C244.421 92.119 245.206 89.0711 245.729 85.2876C246.305 81.4515 246.593 76.8272 246.593 71.4146Z" fill="#141414"/>
<path d="M190.534 99.5544V116.423H123.962V101.919L155.05 61.8767C158.19 57.5676 160.65 53.7841 162.429 50.526C164.209 47.268 165.465 44.3515 166.198 41.7766C166.93 39.1491 167.297 36.6268 167.297 34.2095C167.297 30.7938 166.852 27.7985 165.962 25.2236C165.072 22.5961 163.764 20.573 162.037 19.1542C160.362 17.6828 158.295 16.9471 155.835 16.9471C152.747 16.9471 150.209 17.8142 148.22 19.5483C146.231 21.2824 144.74 23.6734 143.745 26.7213C142.803 29.7691 142.332 33.2374 142.332 37.126H122.156C122.156 30.3997 123.491 24.2252 126.16 18.6024C128.882 12.9271 132.754 8.40787 137.779 5.04472C142.855 1.68157 148.953 0 156.071 0C162.874 0 168.605 1.31373 173.263 3.94119C177.921 6.56865 181.454 10.2734 183.861 15.0553C186.321 19.8373 187.551 25.5389 187.551 32.1601C187.551 35.8385 187.054 39.4644 186.06 43.0378C185.065 46.6111 183.678 50.1582 181.899 53.679C180.119 57.1998 177.947 60.7731 175.383 64.399C172.818 67.9724 169.966 71.6508 166.826 75.4344L149.555 99.5544H190.534Z" fill="#141414"/>
<path d="M68.8491 69.444H80.8604C80.8604 77.6942 78.5053 83.8951 73.7949 88.0464C69.137 92.1453 62.7519 94.1947 54.6397 94.1947C49.092 94.1947 44.2508 92.9072 40.1162 90.3323C36.0339 87.7574 32.8675 84.1841 30.617 79.6123C28.4189 75.0405 27.3198 69.733 27.3198 63.6899V54.3099C27.3198 48.2667 28.4189 42.9592 30.617 38.3875C32.8675 33.8157 36.0339 30.2423 40.1162 27.6674C44.2508 25.0925 49.092 23.8051 54.6397 23.8051C62.7519 23.8051 69.1631 25.8808 73.8734 30.0321C78.5838 34.131 80.9389 40.3055 80.9389 48.5557H68.9276C68.9276 43.511 67.7239 39.8851 65.3164 37.678C62.9089 35.471 59.35 34.3674 54.6397 34.3674C51.2901 34.3674 48.4639 35.2082 46.1611 36.8898C43.8583 38.5714 42.1312 40.9098 40.9797 43.9051C39.8283 46.9004 39.2526 50.3424 39.2526 54.231V63.6899C39.2526 67.5785 39.8283 71.0468 40.9797 74.0946C42.1312 77.0899 43.8583 79.4284 46.1611 81.1099C48.4639 82.7915 51.2901 83.6323 54.6397 83.6323C59.35 83.6323 62.8827 82.555 65.2379 80.4005C67.6454 78.1935 68.8491 74.5413 68.8491 69.444ZM9.42063 58.9605C9.42063 65.8969 10.6244 72.3605 13.0319 78.3511C15.4394 84.3417 18.7628 89.5704 23.002 94.037C27.2413 98.5037 32.161 101.998 37.761 104.521C43.3611 107.043 49.3536 108.304 55.7387 108.304C62.1762 108.304 68.1687 107.043 73.7164 104.521C79.2641 101.998 84.1576 98.5037 88.3969 94.037C92.6885 89.5704 96.0119 84.3417 98.3671 78.3511C100.722 72.3605 101.9 65.8969 101.9 58.9605C101.9 52.024 100.722 45.5604 98.3671 39.5698C96.0119 33.5792 92.6885 28.3768 88.3969 23.9627C84.1576 19.496 79.2641 16.0278 73.7164 13.558C68.1687 11.0882 62.1762 9.85325 55.7387 9.85325C49.3536 9.85325 43.3611 11.0882 37.761 13.558C32.161 16.0278 27.2413 19.496 23.002 23.9627C18.7628 28.3768 15.4394 33.5792 13.0319 39.5698C10.6244 45.5604 9.42063 52.024 9.42063 58.9605ZM0 58.9605C0 50.6051 1.43926 42.8541 4.31779 35.7074C7.19631 28.5608 11.2001 22.3337 16.3291 17.0262C21.4581 11.6662 27.3722 7.51481 34.0713 4.57206C40.8227 1.57675 48.0452 0.0791016 55.7387 0.0791016C63.4322 0.0791016 70.6286 1.57675 77.3277 4.57206C84.0791 7.51481 89.9932 11.6662 95.0699 17.0262C100.199 22.3337 104.203 28.5608 107.081 35.7074C109.96 42.8541 111.399 50.6051 111.399 58.9605C111.399 67.3158 109.96 75.0668 107.081 82.2135C104.203 89.3602 100.199 95.6135 95.0699 100.974C89.9932 106.334 84.0791 110.511 77.3277 113.507C70.6286 116.502 63.4322 117.999 55.7387 117.999C48.0452 117.999 40.8227 116.502 34.0713 113.507C27.3722 110.511 21.4581 106.334 16.3291 100.974C11.2001 95.6135 7.19631 89.3602 4.31779 82.2135C1.43926 75.0668 0 67.3158 0 58.9605Z" fill="#FFD100"/>
<path d="M376.864 63.0976L359.207 58.6585L364.961 0H420.374V19.0244H383.091L380.962 43.8354C382.171 42.9898 383.958 42.065 386.322 41.061C388.74 40.0569 391.42 39.5549 394.362 39.5549C399.144 39.5549 403.348 40.4268 406.974 42.1707C410.653 43.9146 413.753 46.4512 416.275 49.7805C418.798 53.1098 420.716 57.1789 422.029 61.9878C423.343 66.7967 424 72.2398 424 78.3171C424 83.4431 423.317 88.3313 421.951 92.9817C420.584 97.6321 418.482 101.754 415.645 105.348C412.807 108.941 409.286 111.795 405.082 113.909C400.931 115.97 396.018 117 390.342 117C386.086 117 381.987 116.26 378.046 114.78C374.105 113.301 370.558 111.108 367.405 108.201C364.252 105.242 361.729 101.701 359.838 97.5793C357.946 93.4045 357 88.6484 357 83.311H378.834C379.097 86.4289 379.701 89.124 380.647 91.3963C381.645 93.6687 382.959 95.439 384.588 96.7073C386.217 97.9228 388.109 98.5305 390.264 98.5305C392.418 98.5305 394.231 98.002 395.702 96.9451C397.226 95.8354 398.435 94.3028 399.328 92.3476C400.222 90.3923 400.852 88.1199 401.22 85.5305C401.64 82.8882 401.851 80.061 401.851 77.0488C401.851 73.9837 401.588 71.2093 401.062 68.7256C400.537 66.2419 399.722 64.1016 398.619 62.3049C397.515 60.5081 396.07 59.1341 394.284 58.1829C392.549 57.2317 390.526 56.7561 388.214 56.7561C384.956 56.7561 382.513 57.4431 380.884 58.8171C379.307 60.1382 377.967 61.565 376.864 63.0976Z" fill="#141414"/>
<path d="M1360 56.8319V103.101C1358.48 104.836 1356.23 106.885 1353.25 109.25C1350.27 111.562 1346.31 113.611 1341.39 115.398C1336.53 117.132 1330.48 117.999 1323.26 117.999C1317.03 117.999 1311.35 117.001 1306.22 115.004C1301.15 113.007 1296.78 109.985 1293.11 105.939C1289.5 101.84 1286.7 96.743 1284.71 90.6473C1282.78 84.5516 1281.81 77.3524 1281.81 69.0496V49.0284C1281.81 40.7782 1282.7 33.6052 1284.48 27.5095C1286.31 21.3612 1288.95 16.2377 1292.41 12.1389C1295.91 8.04002 1300.13 4.99217 1305.05 2.9953C1309.97 0.998435 1315.57 0 1321.85 0C1330.17 0 1337.02 1.4451 1342.41 4.33531C1347.86 7.17296 1351.99 11.3769 1354.82 16.9471C1357.7 22.5173 1359.42 29.3487 1360 37.4413H1339.59C1339.17 32.6068 1338.31 28.7444 1337 25.8542C1335.69 22.964 1333.83 20.862 1331.42 19.5483C1329.07 18.2346 1326.01 17.5777 1322.24 17.5777C1318.89 17.5777 1315.98 18.182 1313.52 19.3906C1311.12 20.5467 1309.1 22.386 1307.48 24.9083C1305.91 27.4307 1304.73 30.6624 1303.95 34.6036C1303.21 38.5448 1302.85 43.3005 1302.85 48.8707V69.0496C1302.85 74.6198 1303.29 79.4018 1304.18 83.3956C1305.12 87.3893 1306.49 90.6473 1308.26 93.1697C1310.04 95.6921 1312.27 97.5313 1314.94 98.6874C1317.61 99.8434 1320.72 100.421 1324.28 100.421C1327.42 100.421 1329.93 100.106 1331.82 99.4756C1333.7 98.845 1335.19 98.1356 1336.29 97.3474C1337.44 96.5066 1338.36 95.876 1339.04 95.4556V73.0696H1321.61V56.8319H1360Z" fill="#141414"/>
<path d="M1198.83 1.65625H1234.39C1241.98 1.65625 1248.44 2.96998 1253.78 5.59744C1259.12 8.2249 1263.18 12.1135 1265.95 17.2634C1268.78 22.4132 1270.19 28.7454 1270.19 36.2599C1270.19 42.2505 1269.33 47.4529 1267.6 51.867C1265.92 56.2286 1263.52 59.8807 1260.38 62.8235C1257.29 65.7663 1253.55 68.0521 1249.15 69.6812L1242.79 73.3071H1213.35L1213.27 55.7294H1233.92C1237.32 55.7294 1240.15 54.9674 1242.4 53.4435C1244.7 51.9195 1246.4 49.8176 1247.5 47.1376C1248.65 44.405 1249.23 41.2783 1249.23 37.7575C1249.23 33.9214 1248.71 30.6371 1247.66 27.9046C1246.66 25.1195 1245.07 22.9912 1242.87 21.5198C1240.72 20.0485 1237.9 19.3128 1234.39 19.3128H1219.87V116.424H1198.83V1.65625ZM1251.43 116.424L1229.99 65.0306H1252.05L1273.88 115.32V116.424H1251.43Z" fill="#141414"/>
<path d="M1181.94 1.65625V116.424H1161.45L1123.3 40.8317V116.424H1103.2V1.65625H1123.38L1161.85 77.9577V1.65625H1181.94Z" fill="#141414"/>
<path d="M1000.43 1.65625L1019.19 54.7046L1037.88 1.65625H1060.96L1029.79 74.4894V116.424H1008.6V74.4894L977.43 1.65625H1000.43Z" fill="#141414"/>
<path d="M944.929 19.7857L918.787 116.424H896.648L932.682 1.65625H946.499L944.929 19.7857ZM965.576 116.424L939.434 19.7857L937.628 1.65625H951.602L987.793 116.424H965.576ZM966.283 73.7012V91.2789H913.841V73.7012H966.283Z" fill="#141414"/>
<path d="M870.423 86.5488C870.423 84.2892 870.188 82.2923 869.717 80.5582C869.298 78.7715 868.46 77.1425 867.204 75.6711C865.948 74.1997 864.143 72.7546 861.788 71.3358C859.432 69.8644 856.397 68.3668 852.681 66.8428C848.285 65.0562 844.124 63.1644 840.199 61.1675C836.273 59.1181 832.767 56.7534 829.679 54.0734C826.591 51.3934 824.157 48.2404 822.378 44.6145C820.651 40.9886 819.787 36.7584 819.787 31.9239C819.787 27.1945 820.625 22.8854 822.299 18.9968C824.027 15.0556 826.46 11.6925 829.6 8.90736C832.741 6.06971 836.457 3.88892 840.748 2.36499C845.092 0.841065 849.881 0.0791016 855.115 0.0791016C862.494 0.0791016 868.827 1.6293 874.113 4.7297C879.399 7.83011 883.481 12.034 886.36 17.3415C889.238 22.649 890.677 28.6396 890.677 35.3133H869.717C869.717 31.8451 869.193 28.771 868.146 26.0909C867.152 23.3584 865.556 21.2301 863.358 19.7062C861.16 18.1823 858.333 17.4203 854.879 17.4203C851.634 17.4203 848.965 18.0772 846.872 19.3909C844.778 20.6521 843.234 22.3862 842.24 24.5933C841.245 26.7478 840.748 29.2176 840.748 32.0027C840.748 33.9996 841.193 35.8125 842.083 37.4416C843.025 39.018 844.307 40.4631 845.929 41.7769C847.552 43.0906 849.515 44.3518 851.817 45.5604C854.173 46.7165 856.789 47.8463 859.668 48.9498C864.954 50.9467 869.586 53.1538 873.563 55.571C877.541 57.9357 880.838 60.6158 883.455 63.6111C886.124 66.5538 888.113 69.8907 889.421 73.6217C890.73 77.3527 891.384 81.6092 891.384 86.3911C891.384 91.1206 890.573 95.4296 888.95 99.3182C887.328 103.207 884.973 106.544 881.885 109.329C878.797 112.114 875.055 114.268 870.659 115.792C866.315 117.264 861.474 117.999 856.135 117.999C851.006 117.999 846.113 117.264 841.455 115.792C836.849 114.268 832.767 111.983 829.208 108.935C825.649 105.887 822.849 102.051 820.808 97.4265C818.767 92.7496 817.746 87.2582 817.746 80.9523H838.707C838.707 84.4731 839.1 87.5209 839.885 90.0958C840.67 92.6182 841.847 94.6676 843.417 96.2441C844.987 97.768 846.872 98.8978 849.07 99.6335C851.268 100.317 853.754 100.658 856.528 100.658C859.825 100.658 862.494 100.054 864.535 98.8453C866.576 97.6367 868.068 95.9814 869.01 93.8794C869.952 91.7249 870.423 89.2813 870.423 86.5488Z" fill="#141414"/>
<path d="M804.866 1.65625V116.424H784.376L746.222 40.8317V116.424H726.125V1.65625H746.301L784.768 77.9577V1.65625H804.866Z" fill="#141414"/>
<path d="M689.695 1.65625H710.734V80.953C710.734 89.7287 709.112 96.8491 705.867 102.314C702.622 107.779 698.199 111.773 692.599 114.295C686.999 116.765 680.693 118 673.679 118C666.509 118 660.124 116.765 654.524 114.295C648.924 111.773 644.528 107.779 641.335 102.314C638.195 96.8491 636.625 89.7287 636.625 80.953V1.65625H657.586V80.953C657.586 86.1553 658.214 90.1753 659.47 93.013C660.778 95.8507 662.61 97.795 664.965 98.846C667.321 99.8969 670.225 100.422 673.679 100.422C677.134 100.422 680.038 99.8969 682.394 98.846C684.749 97.795 686.554 95.8507 687.81 93.013C689.067 90.1753 689.695 86.1553 689.695 80.953V1.65625Z" fill="#141414"/>
<path d="M603.732 86.5488C603.732 84.2892 603.496 82.2923 603.025 80.5582C602.606 78.7715 601.769 77.1425 600.513 75.6711C599.257 74.1997 597.451 72.7546 595.096 71.3358C592.741 69.8644 589.705 68.3668 585.99 66.8428C581.593 65.0562 577.432 63.1644 573.507 61.1675C569.582 59.1181 566.075 56.7534 562.987 54.0734C559.9 51.3934 557.466 48.2404 555.686 44.6145C553.959 40.9886 553.096 36.7584 553.096 31.9239C553.096 27.1945 553.933 22.8854 555.608 18.9968C557.335 15.0556 559.769 11.6925 562.909 8.90736C566.049 6.06971 569.765 3.88892 574.057 2.36499C578.401 0.841065 583.19 0.0791016 588.423 0.0791016C595.803 0.0791016 602.135 1.6293 607.421 4.7297C612.707 7.83011 616.79 12.034 619.668 17.3415C622.547 22.649 623.986 28.6396 623.986 35.3133H603.025C603.025 31.8451 602.502 28.771 601.455 26.0909C600.461 23.3584 598.864 21.2301 596.666 19.7062C594.468 18.1823 591.642 17.4203 588.188 17.4203C584.943 17.4203 582.274 18.0772 580.18 19.3909C578.087 20.6521 576.543 22.3862 575.548 24.5933C574.554 26.7478 574.057 29.2176 574.057 32.0027C574.057 33.9996 574.502 35.8125 575.391 37.4416C576.333 39.018 577.616 40.4631 579.238 41.7769C580.861 43.0906 582.823 44.3518 585.126 45.5604C587.481 46.7165 590.098 47.8463 592.976 48.9498C598.263 50.9467 602.894 53.1538 606.872 55.571C610.85 57.9357 614.147 60.6158 616.764 63.6111C619.433 66.5538 621.422 69.8907 622.73 73.6217C624.038 77.3527 624.693 81.6092 624.693 86.3911C624.693 91.1206 623.881 95.4296 622.259 99.3182C620.637 103.207 618.281 106.544 615.193 109.329C612.106 112.114 608.364 114.268 603.967 115.792C599.623 117.264 594.782 117.999 589.444 117.999C584.315 117.999 579.421 117.264 574.763 115.792C570.158 114.268 566.075 111.983 562.516 108.935C558.958 105.887 556.158 102.051 554.116 97.4265C552.075 92.7496 551.055 87.2582 551.055 80.9523H572.016C572.016 84.4731 572.408 87.5209 573.193 90.0958C573.978 92.6182 575.156 94.6676 576.726 96.2441C578.296 97.768 580.18 98.8978 582.378 99.6335C584.576 100.317 587.062 100.658 589.836 100.658C593.134 100.658 595.803 100.054 597.844 98.8453C599.885 97.6367 601.377 95.9814 602.319 93.8794C603.261 91.7249 603.732 89.2813 603.732 86.5488Z" fill="#141414"/>
<path d="M505.592 58.8818V75.7501H468.773V58.8818H505.592Z" fill="#141414"/>
<path d="M345.823 99.5544V116.423H279.251V101.919L310.339 61.8767C313.479 57.5676 315.939 53.7841 317.719 50.526C319.498 47.268 320.754 44.3515 321.487 41.7766C322.219 39.1491 322.586 36.6268 322.586 34.2095C322.586 30.7938 322.141 27.7985 321.251 25.2236C320.362 22.5961 319.053 20.573 317.326 19.1542C315.651 17.6828 313.584 16.9471 311.124 16.9471C308.036 16.9471 305.498 17.8142 303.509 19.5483C301.52 21.2824 300.029 23.6734 299.034 26.7213C298.092 29.7691 297.621 33.2374 297.621 37.126H277.445C277.445 30.3997 278.78 24.2252 281.449 18.6024C284.171 12.9271 288.044 8.40787 293.068 5.04472C298.145 1.68157 304.242 0 311.36 0C318.163 0 323.894 1.31373 328.552 3.94119C333.21 6.56865 336.743 10.2734 339.15 15.0553C341.61 19.8373 342.84 25.5389 342.84 32.1601C342.84 35.8385 342.343 39.4644 341.349 43.0378C340.354 46.6111 338.967 50.1582 337.188 53.679C335.408 57.1998 333.236 60.7731 330.672 64.399C328.107 67.9724 325.255 71.6508 322.115 75.4344L304.844 99.5544H345.823Z" fill="#141414"/>
<path d="M266.69 49.1863V68.577C266.69 77.3527 265.905 84.8672 264.335 91.1206C262.765 97.3739 260.541 102.497 257.662 106.491C254.836 110.432 251.434 113.349 247.456 115.241C243.479 117.08 239.083 117.999 234.268 117.999C230.447 117.999 226.862 117.421 223.512 116.265C220.163 115.057 217.127 113.217 214.406 110.748C211.737 108.225 209.434 105.02 207.497 101.131C205.613 97.2425 204.148 92.6182 203.101 87.2582C202.107 81.8456 201.609 75.6186 201.609 68.577V49.1863C201.609 40.358 202.394 32.8435 203.965 26.6427C205.587 20.4419 207.837 15.3709 210.716 11.4297C213.595 7.48854 217.023 4.62461 221 2.83793C224.978 0.998712 229.374 0.0791016 234.189 0.0791016C238.01 0.0791016 241.595 0.657143 244.944 1.81322C248.294 2.96931 251.277 4.78225 253.894 7.25206C256.563 9.66933 258.866 12.8223 260.802 16.7109C262.739 20.547 264.204 25.1713 265.199 30.5839C266.193 35.9439 266.69 42.1447 266.69 49.1863ZM246.593 71.4146V46.1122C246.593 41.8032 246.41 38.0196 246.043 34.7616C245.677 31.5035 245.154 28.771 244.473 26.5639C243.793 24.3043 242.929 22.4651 241.883 21.0462C240.888 19.6274 239.737 18.6027 238.428 17.9721C237.12 17.289 235.707 16.9474 234.189 16.9474C232.253 16.9474 230.525 17.4729 229.008 18.5239C227.49 19.5223 226.182 21.1776 225.082 23.4898C223.983 25.7494 223.146 28.7447 222.57 32.4757C221.995 36.2067 221.707 40.7522 221.707 46.1122V71.4146C221.707 75.7762 221.89 79.6123 222.256 82.9229C222.675 86.1809 223.224 88.966 223.905 91.2782C224.638 93.5904 225.501 95.4821 226.496 96.9535C227.49 98.3723 228.641 99.4233 229.95 100.106C231.258 100.79 232.697 101.131 234.268 101.131C236.204 101.131 237.931 100.606 239.449 99.5547C241.019 98.4512 242.327 96.7433 243.374 94.4312C244.421 92.119 245.206 89.0711 245.729 85.2876C246.305 81.4515 246.593 76.8272 246.593 71.4146Z" fill="#141414"/>
<path d="M190.534 99.5544V116.423H123.962V101.919L155.05 61.8767C158.19 57.5676 160.65 53.7841 162.429 50.526C164.209 47.268 165.465 44.3515 166.198 41.7766C166.93 39.1491 167.297 36.6268 167.297 34.2095C167.297 30.7938 166.852 27.7985 165.962 25.2236C165.072 22.5961 163.764 20.573 162.037 19.1542C160.362 17.6828 158.295 16.9471 155.835 16.9471C152.747 16.9471 150.209 17.8142 148.22 19.5483C146.231 21.2824 144.74 23.6734 143.745 26.7213C142.803 29.7691 142.332 33.2374 142.332 37.126H122.156C122.156 30.3997 123.491 24.2252 126.16 18.6024C128.882 12.9271 132.754 8.40787 137.779 5.04472C142.855 1.68157 148.953 0 156.071 0C162.874 0 168.605 1.31373 173.263 3.94119C177.921 6.56865 181.454 10.2734 183.861 15.0553C186.321 19.8373 187.551 25.5389 187.551 32.1601C187.551 35.8385 187.054 39.4644 186.06 43.0378C185.065 46.6111 183.678 50.1582 181.899 53.679C180.119 57.1998 177.947 60.7731 175.383 64.399C172.818 67.9724 169.966 71.6508 166.826 75.4344L149.555 99.5544H190.534Z" fill="#141414"/>
<path d="M68.8491 69.444H80.8604C80.8604 77.6942 78.5053 83.8951 73.7949 88.0464C69.137 92.1453 62.7519 94.1947 54.6397 94.1947C49.092 94.1947 44.2508 92.9072 40.1162 90.3323C36.0339 87.7574 32.8675 84.1841 30.617 79.6123C28.4189 75.0405 27.3198 69.733 27.3198 63.6899V54.3099C27.3198 48.2667 28.4189 42.9592 30.617 38.3875C32.8675 33.8157 36.0339 30.2423 40.1162 27.6674C44.2508 25.0925 49.092 23.8051 54.6397 23.8051C62.7519 23.8051 69.1631 25.8808 73.8734 30.0321C78.5838 34.131 80.9389 40.3055 80.9389 48.5557H68.9276C68.9276 43.511 67.7239 39.8851 65.3164 37.678C62.9089 35.471 59.35 34.3674 54.6397 34.3674C51.2901 34.3674 48.4639 35.2082 46.1611 36.8898C43.8583 38.5714 42.1312 40.9098 40.9797 43.9051C39.8283 46.9004 39.2526 50.3424 39.2526 54.231V63.6899C39.2526 67.5785 39.8283 71.0468 40.9797 74.0946C42.1312 77.0899 43.8583 79.4284 46.1611 81.1099C48.4639 82.7915 51.2901 83.6323 54.6397 83.6323C59.35 83.6323 62.8827 82.555 65.2379 80.4005C67.6454 78.1935 68.8491 74.5413 68.8491 69.444ZM9.42063 58.9605C9.42063 65.8969 10.6244 72.3605 13.0319 78.3511C15.4394 84.3417 18.7628 89.5704 23.002 94.037C27.2413 98.5037 32.161 101.998 37.761 104.521C43.3611 107.043 49.3536 108.304 55.7387 108.304C62.1762 108.304 68.1687 107.043 73.7164 104.521C79.2641 101.998 84.1576 98.5037 88.3969 94.037C92.6885 89.5704 96.0119 84.3417 98.3671 78.3511C100.722 72.3605 101.9 65.8969 101.9 58.9605C101.9 52.024 100.722 45.5604 98.3671 39.5698C96.0119 33.5792 92.6885 28.3768 88.3969 23.9627C84.1576 19.496 79.2641 16.0278 73.7164 13.558C68.1687 11.0882 62.1762 9.85325 55.7387 9.85325C49.3536 9.85325 43.3611 11.0882 37.761 13.558C32.161 16.0278 27.2413 19.496 23.002 23.9627C18.7628 28.3768 15.4394 33.5792 13.0319 39.5698C10.6244 45.5604 9.42063 52.024 9.42063 58.9605ZM0 58.9605C0 50.6051 1.43926 42.8541 4.31779 35.7074C7.19631 28.5608 11.2001 22.3337 16.3291 17.0262C21.4581 11.6662 27.3722 7.51481 34.0713 4.57206C40.8227 1.57675 48.0452 0.0791016 55.7387 0.0791016C63.4322 0.0791016 70.6286 1.57675 77.3277 4.57206C84.0791 7.51481 89.9932 11.6662 95.0699 17.0262C100.199 22.3337 104.203 28.5608 107.081 35.7074C109.96 42.8541 111.399 50.6051 111.399 58.9605C111.399 67.3158 109.96 75.0668 107.081 82.2135C104.203 89.3602 100.199 95.6135 95.0699 100.974C89.9932 106.334 84.0791 110.511 77.3277 113.507C70.6286 116.502 63.4322 117.999 55.7387 117.999C48.0452 117.999 40.8227 116.502 34.0713 113.507C27.3722 110.511 21.4581 106.334 16.3291 100.974C11.2001 95.6135 7.19631 89.3602 4.31779 82.2135C1.43926 75.0668 0 67.3158 0 58.9605Z" fill="#FFD100"/>
</svg>
