<svg width="248" height="160" viewBox="0 0 248 160" fill="none" xmlns="http://www.w3.org/2000/svg">
<path fill-rule="evenodd" clip-rule="evenodd" d="M11.2727 109.343C18.5768 109.343 22.3344 113.863 22.3344 121.751V123.329H15.2414V121.282C15.2414 117.743 13.8904 116.379 11.4838 116.379C9.0773 116.379 7.72625 117.743 7.72625 121.282C7.72625 131.431 22.4188 133.35 22.4188 147.506C22.4188 155.395 18.5768 159.915 11.2305 159.915C3.84202 159.915 0 155.395 0 147.506V144.436H7.13518V147.975C7.13518 151.514 8.61287 152.794 11.0194 152.794C13.3837 152.794 14.9036 151.514 14.9036 147.975C14.9036 137.827 0.2111 135.908 0.2111 121.751C0.2111 113.863 3.96868 109.343 11.2727 109.343ZM34.5781 109.897V148.061C34.5781 151.6 36.0558 152.879 38.4624 152.879C40.8689 152.879 42.3466 151.6 42.3466 148.061V109.897H49.4396V147.549C49.4396 155.48 45.6398 160 38.2513 160C30.905 160 27.063 155.48 27.063 147.549V109.897H34.5781ZM61.1345 123.542V159.36H54.3793V109.897H63.7943L71.4784 139.49V109.897H78.1914V159.36H70.4651L61.1345 123.542ZM93.8972 109.343C101.201 109.343 104.959 113.863 104.959 121.794V123.329H97.8659V121.282C97.8659 117.743 96.4726 116.421 94.1083 116.421C91.7017 116.421 90.3507 117.743 90.3507 121.282C90.3507 131.473 105.043 133.35 105.043 147.506C105.043 155.437 101.201 159.957 93.8127 159.957C86.4665 159.957 82.6245 155.437 82.6245 147.506V144.479H89.7174V148.018C89.7174 151.514 91.2373 152.794 93.6439 152.794C96.0082 152.794 97.5281 151.514 97.5281 148.018C97.5281 137.827 82.8355 135.908 82.8355 121.794C82.8355 113.863 86.5931 109.343 93.8972 109.343ZM133.795 159.36H126.238L124.929 150.406H115.725L114.416 159.36H107.534L115.176 109.897H126.153L133.795 159.36ZM116.654 143.669H123.916L120.285 118.681L116.654 143.669ZM140.212 142.944L130.713 109.855H138.566L144.308 132.411L150.05 109.855H157.227L147.728 142.944V159.36H140.212V142.944ZM176.142 123.5V159.318H169.386V109.855H178.802L186.528 139.447V109.855H193.241V159.318H185.514L176.142 123.5ZM214.14 159.318C213.717 158.038 213.464 157.271 213.464 153.263V145.459C213.464 140.897 211.944 139.191 208.567 139.191H205.949V159.318H198.434V109.855H209.791C217.559 109.855 220.895 113.607 220.895 121.24V125.12C220.895 130.237 219.333 133.52 215.997 135.14C219.755 136.803 220.979 140.513 220.979 145.673V153.305C220.979 155.736 221.064 157.484 221.781 159.318H214.14ZM205.949 116.933V132.113H208.904C211.691 132.113 213.422 130.834 213.422 126.911V122.007C213.422 118.468 212.24 116.933 209.58 116.933H205.949ZM237.487 131.772H248V147.464C248 155.352 244.2 159.915 236.812 159.915C229.423 159.915 225.623 155.352 225.623 147.464V121.751C225.623 113.82 229.423 109.3 236.812 109.3C244.2 109.3 248 113.82 248 121.751V126.527H240.907V121.24C240.907 117.7 239.429 116.379 237.023 116.379C234.616 116.379 233.139 117.7 233.139 121.24V147.933C233.139 151.472 234.616 152.751 237.023 152.751C239.429 152.751 240.907 151.472 240.907 147.933V138.85H237.487V131.772Z" fill="#141414"/>
<path d="M116.94 14.5019C124.883 6.35595 137.801 6.35595 145.786 14.5019L151.556 8.58536C140.393 -2.86179 122.291 -2.86179 111.128 8.58536C99.9659 20.0325 99.9659 38.5966 111.128 50.0437L116.94 44.1272C108.954 35.9385 108.954 22.6906 116.94 14.5019ZM134.248 26.3777L128.478 32.2942C136.422 40.4401 136.422 53.7308 128.478 61.8767C120.493 70.0655 107.575 70.0655 99.5897 61.8767L93.8203 67.7932C104.983 79.2404 123.085 79.2404 134.248 67.7932C145.41 56.3461 145.41 37.782 134.248 26.3777Z" fill="white"/>
</svg>
