<svg width="124" height="26" viewBox="0 0 124 26" fill="none" xmlns="http://www.w3.org/2000/svg">
<path fill-rule="evenodd" clip-rule="evenodd" d="M6.49926 0.259445C10.1156 0.259445 11.976 2.50283 11.976 6.41818V7.20124H8.46421V6.18537C8.46421 4.42876 7.79529 3.75151 6.60378 3.75151C5.41227 3.75151 4.74335 4.42876 4.74335 6.18537C4.74335 11.2224 12.0178 12.1748 12.0178 19.2012C12.0178 23.1166 10.1156 25.36 6.47836 25.36C2.82021 25.36 0.917969 23.1166 0.917969 19.2012V17.6774H4.4507V19.434C4.4507 21.1907 5.18233 21.8256 6.37384 21.8256C7.54444 21.8256 8.29698 21.1907 8.29698 19.434C8.29698 14.397 1.02249 13.4446 1.02249 6.41818C1.02249 2.50283 2.88292 0.259445 6.49926 0.259445ZM18.0381 0.534577V19.4764C18.0381 21.233 18.7697 21.8679 19.9612 21.8679C21.1528 21.8679 21.8844 21.233 21.8844 19.4764V0.534577H25.3962V19.2224C25.3962 23.1589 23.5149 25.4023 19.8567 25.4023C16.2195 25.4023 14.3172 23.1589 14.3172 19.2224V0.534577H18.0381ZM31.1865 7.30706V25.0848H27.8419V0.534577H32.5035L36.3079 15.2224V0.534577H39.6316V25.0848H35.8062L31.1865 7.30706ZM47.4078 0.259445C51.0241 0.259445 52.8846 2.50283 52.8846 6.43934V7.20124H49.3728V6.18537C49.3728 4.42876 48.6829 3.77267 47.5123 3.77267C46.3208 3.77267 45.6519 4.42876 45.6519 6.18537C45.6519 11.2436 52.9264 12.1748 52.9264 19.2012C52.9264 23.1378 51.0241 25.3811 47.366 25.3811C43.7288 25.3811 41.8265 23.1378 41.8265 19.2012V17.6986H45.3383V19.4552C45.3383 21.1907 46.0909 21.8256 47.2824 21.8256C48.453 21.8256 49.2055 21.1907 49.2055 19.4552C49.2055 14.397 41.931 13.4446 41.931 6.43934C41.931 2.50283 43.7915 0.259445 47.4078 0.259445ZM67.1618 25.0848H63.42L62.772 20.6404H58.215L57.567 25.0848H54.1597L57.9433 0.534577H63.3782L67.1618 25.0848ZM58.6749 17.2965H62.2703L60.4726 4.89437L58.6749 17.2965ZM70.3392 16.9367L65.6358 0.513413H69.5239L72.3668 11.7092L75.2097 0.513413H78.7634L74.06 16.9367V25.0848H70.3392V16.9367ZM88.1282 7.2859V25.0637H84.7836V0.513413H89.4452L93.2705 15.2012V0.513413H96.5942V25.0637H92.7688L88.1282 7.2859ZM106.942 25.0637C106.733 24.4288 106.607 24.0478 106.607 22.0584V18.1854C106.607 15.9208 105.855 15.0743 104.182 15.0743H102.886V25.0637H99.1654V0.513413H104.788C108.635 0.513413 110.286 2.37585 110.286 6.16421V8.09013C110.286 10.6298 109.513 12.2594 107.861 13.0637C109.722 13.8891 110.328 15.7303 110.328 18.2912V22.0795C110.328 23.2859 110.37 24.1536 110.725 25.0637H106.942ZM102.886 4.02664V11.561H104.349C105.729 11.561 106.586 10.9261 106.586 8.97902V6.54516C106.586 4.78855 106.001 4.02664 104.684 4.02664H102.886ZM118.501 11.3917H123.706V19.1801C123.706 23.0954 121.825 25.36 118.167 25.36C114.509 25.36 112.627 23.0954 112.627 19.1801V6.41818C112.627 2.48167 114.509 0.238281 118.167 0.238281C121.825 0.238281 123.706 2.48167 123.706 6.41818V8.78855H120.194V6.16421C120.194 4.40759 119.463 3.75151 118.271 3.75151C117.08 3.75151 116.348 4.40759 116.348 6.16421V19.4129C116.348 21.1695 117.08 21.8044 118.271 21.8044C119.463 21.8044 120.194 21.1695 120.194 19.4129V14.9049H118.501V11.3917Z" fill="white"/>
</svg>
