<svg width="322" height="66" viewBox="0 0 322 66" fill="none" xmlns="http://www.w3.org/2000/svg">
<g clip-path="url(#clip0_705_1607)">
<path fill-rule="evenodd" clip-rule="evenodd" d="M14.0524 1.51149C23.2941 1.51149 28.0485 7.23212 28.0485 17.2163V19.2131H19.0739V16.6226C19.0739 12.1432 17.3644 10.4162 14.3195 10.4162C11.2745 10.4162 9.56503 12.1432 9.56503 16.6226C9.56503 29.467 28.1554 31.8956 28.1554 49.8131C28.1554 59.7972 23.2941 65.5178 13.9989 65.5178C4.65034 65.5178 -0.210938 59.7972 -0.210938 49.8131V45.9274H8.81714V50.4067C8.81714 54.8861 10.6869 56.5051 13.7318 56.5051C16.7234 56.5051 18.6465 54.8861 18.6465 50.4067C18.6465 37.5623 0.0561654 35.1337 0.0561654 17.2163C0.0561654 7.23212 4.8106 1.51149 14.0524 1.51149ZM43.5405 2.21307V50.5147C43.5405 54.994 45.4102 56.6131 48.4552 56.6131C51.5002 56.6131 53.3699 54.994 53.3699 50.5147V2.21307H62.3446V49.867C62.3446 59.9051 57.5367 65.6258 48.1881 65.6258C38.8929 65.6258 34.0317 59.9051 34.0317 49.867V2.21307H43.5405ZM77.1421 19.4829V64.8163H68.5948V2.21307H80.5076L90.2301 39.667V2.21307H98.724V64.8163H88.948L77.1421 19.4829ZM118.596 1.51149C127.838 1.51149 132.593 7.23212 132.593 17.2702V19.2131H123.618V16.6226C123.618 12.1432 121.855 10.4702 118.864 10.4702C115.819 10.4702 114.109 12.1432 114.109 16.6226C114.109 29.521 132.699 31.8956 132.699 49.8131C132.699 59.8512 127.838 65.5718 118.49 65.5718C109.194 65.5718 104.333 59.8512 104.333 49.8131V45.9813H113.308V50.4607C113.308 54.8861 115.231 56.5051 118.276 56.5051C121.267 56.5051 123.191 54.8861 123.191 50.4607C123.191 37.5623 104.6 35.1337 104.6 17.2702C104.6 7.23212 109.355 1.51149 118.596 1.51149ZM169.079 64.8163H159.517L157.861 53.4829H146.215L144.559 64.8163H135.851L145.52 2.21307H159.41L169.079 64.8163ZM147.39 44.9559H156.578L151.984 13.3305L147.39 44.9559ZM177.199 44.0385L165.179 2.15911H175.115L182.381 30.7083L189.646 2.15911H198.727L186.708 44.0385V64.8163H177.199V44.0385ZM222.66 19.4289V64.7623H214.112V2.15911H226.025L235.801 39.6131V2.15911H244.295V64.7623H234.519L222.66 19.4289ZM270.738 64.7623C270.204 63.1432 269.883 62.1718 269.883 57.0988V47.2226C269.883 41.448 267.96 39.2893 263.687 39.2893H260.375V64.7623H250.866V2.15911H265.236C275.065 2.15911 279.285 6.90831 279.285 16.5686V21.4797C279.285 27.9559 277.309 32.1115 273.089 34.1623C277.843 36.267 279.392 40.9623 279.392 47.4924V57.1528C279.392 60.229 279.499 62.4417 280.407 64.7623H270.738ZM260.375 11.1178V30.3305H264.114C267.64 30.3305 269.83 28.7115 269.83 23.7464V17.5401C269.83 13.0607 268.334 11.1178 264.969 11.1178H260.375ZM300.28 29.8988H313.582V49.7591C313.582 59.7432 308.774 65.5178 299.425 65.5178C290.076 65.5178 285.269 59.7432 285.269 49.7591V17.2163C285.269 7.17815 290.076 1.45752 299.425 1.45752C308.774 1.45752 313.582 7.17815 313.582 17.2163V23.2607H304.607V16.5686C304.607 12.0893 302.737 10.4162 299.692 10.4162C296.647 10.4162 294.777 12.0893 294.777 16.5686V50.3528C294.777 54.8321 296.647 56.4512 299.692 56.4512C302.737 56.4512 304.607 54.8321 304.607 50.3528V38.8575H300.28V29.8988Z" fill="#B1B3B4"/>
</g>
<defs>
<clipPath id="clip0_705_1607">
<rect width="322" height="66" fill="white"/>
</clipPath>
</defs>
</svg>
