<svg width="27" height="35" viewBox="0 0 27 35" fill="none" xmlns="http://www.w3.org/2000/svg">
<path d="M11.2939 7.39032C14.8589 3.77127 20.6566 3.77127 24.2403 7.39032L26.8296 4.76175C21.8199 -0.323968 13.6955 -0.323968 8.68584 4.76175C3.67612 9.84746 3.67612 18.0951 8.68584 23.1808L11.2939 20.5522C7.71016 16.9141 7.71016 11.0284 11.2939 7.39032ZM19.0618 12.6665L16.4725 15.2951C20.0374 18.9141 20.0374 24.8189 16.4725 28.4379C12.8887 32.076 7.09098 32.076 3.50726 28.4379L0.917969 31.0665C5.92768 36.1522 14.052 36.1522 19.0618 31.0665C24.0715 25.9808 24.0715 17.7332 19.0618 12.6665Z" fill="#FFD100"/>
</svg>
