<svg width="166" height="40" viewBox="0 0 166 40" fill="none" xmlns="http://www.w3.org/2000/svg">
<g id="logo-navbar 1">
<path id="Path 1" fill-rule="evenodd" clip-rule="evenodd" d="M45.4993 7.25944C49.1156 7.25944 50.976 9.50283 50.976 13.4182V14.2012H47.4642V13.1854C47.4642 11.4288 46.7953 10.7515 45.6038 10.7515C44.4123 10.7515 43.7433 11.4288 43.7433 13.1854C43.7433 18.2224 51.0178 19.1748 51.0178 26.2012C51.0178 30.1166 49.1156 32.36 45.4784 32.36C41.8202 32.36 39.918 30.1166 39.918 26.2012V24.6774H43.4507V26.434C43.4507 28.1907 44.1823 28.8256 45.3738 28.8256C46.5444 28.8256 47.297 28.1907 47.297 26.434C47.297 21.397 40.0225 20.4446 40.0225 13.4182C40.0225 9.50283 41.8829 7.25944 45.4993 7.25944ZM57.0381 7.53458V26.4764C57.0381 28.233 57.7697 28.8679 58.9612 28.8679C60.1528 28.8679 60.8844 28.233 60.8844 26.4764V7.53458H64.3962V26.2224C64.3962 30.1589 62.5149 32.4023 58.8567 32.4023C55.2195 32.4023 53.3172 30.1589 53.3172 26.2224V7.53458H57.0381ZM70.1865 14.3071V32.0848H66.8419V7.53458H71.5035L75.3079 22.2224V7.53458H78.6316V32.0848H74.8062L70.1865 14.3071ZM86.4078 7.25944C90.0241 7.25944 91.8846 9.50283 91.8846 13.4393V14.2012H88.3728V13.1854C88.3728 11.4288 87.6829 10.7727 86.5123 10.7727C85.3208 10.7727 84.6519 11.4288 84.6519 13.1854C84.6519 18.2436 91.9264 19.1748 91.9264 26.2012C91.9264 30.1378 90.0241 32.3811 86.366 32.3811C82.7288 32.3811 80.8265 30.1378 80.8265 26.2012V24.6986H84.3383V26.4552C84.3383 28.1907 85.0909 28.8256 86.2824 28.8256C87.453 28.8256 88.2055 28.1907 88.2055 26.4552C88.2055 21.397 80.931 20.4446 80.931 13.4393C80.931 9.50283 82.7915 7.25944 86.4078 7.25944ZM106.162 32.0848H102.42L101.772 27.6404H97.215L96.567 32.0848H93.1597L96.9433 7.53458H102.378L106.162 32.0848ZM97.6749 24.2965H101.27L99.4726 11.8944L97.6749 24.2965ZM109.339 23.9367L104.636 7.51341H108.524L111.367 18.7092L114.21 7.51341H117.763L113.06 23.9367V32.0848H109.339V23.9367ZM127.128 14.2859V32.0637H123.784V7.51341H128.445L132.271 22.2012V7.51341H135.594V32.0637H131.769L127.128 14.2859ZM145.942 32.0637C145.733 31.4288 145.607 31.0478 145.607 29.0584V25.1854C145.607 22.9208 144.855 22.0743 143.182 22.0743H141.886V32.0637H138.165V7.51341H143.788C147.635 7.51341 149.286 9.37585 149.286 13.1642V15.0901C149.286 17.6298 148.513 19.2594 146.861 20.0637C148.722 20.8891 149.328 22.7303 149.328 25.2912V29.0795C149.328 30.2859 149.37 31.1536 149.725 32.0637H145.942ZM141.886 11.0266V18.561H143.349C144.729 18.561 145.586 17.9261 145.586 15.979V13.5452C145.586 11.7885 145.001 11.0266 143.684 11.0266H141.886ZM157.501 18.3917H162.706V26.1801C162.706 30.0954 160.825 32.36 157.167 32.36C153.509 32.36 151.627 30.0954 151.627 26.1801V13.4182C151.627 9.48167 153.509 7.23828 157.167 7.23828C160.825 7.23828 162.706 9.48167 162.706 13.4182V15.7885H159.194V13.1642C159.194 11.4076 158.463 10.7515 157.271 10.7515C156.08 10.7515 155.348 11.4076 155.348 13.1642V26.4129C155.348 28.1695 156.08 28.8044 157.271 28.8044C158.463 28.8044 159.194 28.1695 159.194 26.4129V21.9049H157.501V18.3917Z" fill="white"/>
<path id="Path 2" d="M14.8097 8.21146C18.7815 4.1903 25.2407 4.1903 29.2333 8.21146L32.118 5.29083C26.5367 -0.359964 17.4854 -0.359964 11.9041 5.29083C6.32284 10.9416 6.32284 20.1056 11.9041 25.7564L14.8097 22.8358C10.8171 18.7935 10.8171 12.2538 14.8097 8.21146ZM23.4639 14.0739L20.5792 16.9945C24.5509 21.0157 24.5509 27.5765 20.5792 31.5977C16.5866 35.64 10.1273 35.64 6.13471 31.5977L3.25 34.5183C8.83129 40.1691 17.8826 40.1691 23.4639 34.5183C29.0452 28.8675 29.0452 19.7035 23.4639 14.0739Z" fill="#FFD100"/>
</g>
</svg>
